<svg width="399" height="281" viewBox="0 0 399 281" fill="none" xmlns="http://www.w3.org/2000/svg">
<g clip-path="url(#clip0)">
<path d="M88.4149 28.1481H62.9699C60.5236 28.1503 58.1781 29.1225 56.4484 30.8513C54.7186 32.58 53.7458 34.9241 53.7436 37.369V64.9395C53.4183 64.9201 53.093 64.891 52.7724 64.8522C46.7443 64.2183 41.0132 61.914 36.2253 58.1991C31.4374 54.4841 27.7831 49.5063 25.6745 43.8268C23.5658 38.1472 23.0867 31.9919 24.291 26.0548C25.4954 20.1177 28.3353 14.6349 32.4907 10.2246C36.6461 5.81423 41.9516 2.65178 47.8091 1.09377C53.6667 -0.46425 59.8432 -0.355873 65.6424 1.40668C71.4416 3.16924 76.6328 6.51588 80.6307 11.0693C84.6286 15.6227 87.2742 21.2017 88.2693 27.1774C88.3227 27.4977 88.3713 27.8229 88.4149 28.1481Z" fill="#F2F2F2"/>
<path d="M388.803 27.1774H62.9699C60.2663 27.1804 57.6743 28.2551 55.7625 30.1657C53.8507 32.0764 52.7754 34.6669 52.7725 37.369V209.169C52.7754 211.871 53.8507 214.462 55.7625 216.373C57.6743 218.283 60.2663 219.358 62.9699 219.361H388.803C391.506 219.358 394.098 218.283 396.01 216.373C397.922 214.462 398.997 211.871 399 209.169V37.369C398.997 34.6669 397.922 32.0764 396.01 30.1657C394.098 28.2551 391.506 27.1804 388.803 27.1774ZM398.029 209.169C398.027 211.614 397.054 213.958 395.324 215.687C393.594 217.416 391.249 218.388 388.803 218.39H62.9699C60.5236 218.388 58.1782 217.416 56.4484 215.687C54.7186 213.958 53.7459 211.614 53.7436 209.169V37.369C53.7459 34.9241 54.7186 32.58 56.4484 30.8513C58.1782 29.1225 60.5236 28.1503 62.9699 28.1481H388.803C391.249 28.1503 393.594 29.1225 395.324 30.8513C397.054 32.58 398.027 34.9241 398.029 37.369V209.169Z" fill="#3F3D56"/>
<path d="M372.778 55.0196H78.9944C78.8656 55.0196 78.7421 54.9685 78.651 54.8774C78.56 54.7864 78.5088 54.663 78.5088 54.5343C78.5088 54.4056 78.56 54.2821 78.651 54.1911C78.7421 54.1001 78.8656 54.049 78.9944 54.049H372.778C372.907 54.049 373.03 54.1001 373.121 54.1911C373.212 54.2821 373.264 54.4056 373.264 54.5343C373.264 54.663 373.212 54.7864 373.121 54.8774C373.03 54.9685 372.907 55.0196 372.778 55.0196Z" fill="#3F3D56"/>
<path d="M162.031 198.492C161.902 198.492 161.778 198.441 161.687 198.35C161.596 198.259 161.545 198.136 161.545 198.007V38.3396C161.545 38.2109 161.596 38.0875 161.687 37.9964C161.778 37.9054 161.902 37.8543 162.031 37.8543C162.16 37.8543 162.283 37.9054 162.374 37.9964C162.465 38.0875 162.516 38.2109 162.516 38.3396V198.007C162.516 198.136 162.465 198.259 162.374 198.35C162.283 198.441 162.16 198.492 162.031 198.492Z" fill="#3F3D56"/>
<path d="M235.355 198.492C235.226 198.492 235.103 198.441 235.012 198.35C234.921 198.259 234.87 198.136 234.87 198.007V38.3396C234.87 38.2109 234.921 38.0875 235.012 37.9964C235.103 37.9054 235.226 37.8543 235.355 37.8543C235.484 37.8543 235.608 37.9054 235.699 37.9964C235.79 38.0875 235.841 38.2109 235.841 38.3396V198.007C235.841 198.136 235.79 198.259 235.699 198.35C235.608 198.441 235.484 198.492 235.355 198.492Z" fill="#3F3D56"/>
<path d="M308.68 198.492C308.551 198.492 308.427 198.441 308.336 198.35C308.245 198.259 308.194 198.136 308.194 198.007V38.3396C308.194 38.2109 308.245 38.0875 308.336 37.9964C308.427 37.9054 308.551 37.8543 308.68 37.8543C308.808 37.8543 308.932 37.9054 309.023 37.9964C309.114 38.0875 309.165 38.2109 309.165 38.3396V198.007C309.165 198.136 309.114 198.259 309.023 198.35C308.932 198.441 308.808 198.492 308.68 198.492Z" fill="#3F3D56"/>
<path d="M114.887 105.112H97.1437C96.5643 105.112 96.0089 104.881 95.5992 104.472C95.1896 104.063 94.9591 103.507 94.9585 102.928V82.002C94.9591 81.423 95.1896 80.8679 95.5992 80.4585C96.0089 80.049 96.5643 79.8188 97.1437 79.8181H114.887C115.467 79.8188 116.022 80.049 116.432 80.4585C116.841 80.8679 117.072 81.423 117.072 82.002V102.928C117.072 103.507 116.841 104.063 116.432 104.472C116.022 104.881 115.467 105.112 114.887 105.112Z" fill="#6C63FF"/>
<path d="M140.138 164.806H122.394C121.815 164.805 121.26 164.575 120.85 164.165C120.44 163.756 120.21 163.201 120.209 162.622V141.695C120.21 141.116 120.44 140.561 120.85 140.152C121.26 139.742 121.815 139.512 122.394 139.511H140.138C140.717 139.512 141.273 139.742 141.682 140.152C142.092 140.561 142.323 141.116 142.323 141.695V162.622C142.323 163.201 142.092 163.756 141.682 164.165C141.273 164.575 140.717 164.805 140.138 164.806Z" fill="#6C63FF"/>
<path d="M197.438 117.73H179.695C179.115 117.73 178.56 117.499 178.15 117.09C177.741 116.681 177.51 116.126 177.51 115.547V94.6201C177.51 94.0411 177.741 93.486 178.15 93.0766C178.56 92.6672 179.115 92.4369 179.695 92.4362H197.438C198.018 92.4369 198.573 92.6672 198.983 93.0766C199.392 93.486 199.623 94.0411 199.623 94.6201V115.547C199.623 116.126 199.392 116.681 198.983 117.09C198.573 117.5 198.018 117.73 197.438 117.73Z" fill="#6C63FF"/>
<path d="M271.734 94.9208H253.99C253.411 94.9202 252.856 94.6899 252.446 94.2804C252.036 93.871 251.806 93.3159 251.805 92.7369V71.8105C251.806 71.2315 252.036 70.6764 252.446 70.2669C252.856 69.8575 253.411 69.6272 253.99 69.6266H271.734C272.313 69.6272 272.869 69.8575 273.278 70.2669C273.688 70.6764 273.918 71.2315 273.919 71.8105V92.7369C273.918 93.3159 273.688 93.871 273.278 94.2805C272.869 94.6899 272.313 94.9202 271.734 94.9208Z" fill="#6C63FF"/>
<path d="M340.202 94.9208H322.459C321.88 94.9202 321.324 94.6899 320.914 94.2804C320.505 93.871 320.274 93.3159 320.274 92.7369V71.8105C320.274 71.2315 320.505 70.6764 320.914 70.2669C321.324 69.8575 321.88 69.6272 322.459 69.6266H340.202C340.782 69.6272 341.337 69.8575 341.747 70.2669C342.156 70.6764 342.387 71.2315 342.388 71.8105V92.7369C342.387 93.3159 342.156 93.871 341.747 94.2805C341.337 94.6899 340.782 94.9202 340.202 94.9208Z" fill="#6C63FF"/>
<path d="M371.766 100.745H354.022C353.443 100.744 352.888 100.514 352.478 100.104C352.068 99.6947 351.838 99.1397 351.837 98.5606V77.6342C351.838 77.0552 352.068 76.5001 352.478 76.0907C352.888 75.6813 353.443 75.451 354.022 75.4503H371.766C372.345 75.451 372.901 75.6813 373.31 76.0907C373.72 76.5001 373.95 77.0552 373.951 77.6342V98.5607C373.95 99.1397 373.72 99.6948 373.31 100.104C372.901 100.514 372.345 100.744 371.766 100.745Z" fill="#E6E6E6"/>
<path d="M357.684 138.114H339.94C339.361 138.113 338.805 137.883 338.396 137.473C337.986 137.064 337.756 136.509 337.755 135.93V115.003C337.756 114.424 337.986 113.869 338.396 113.46C338.805 113.05 339.361 112.82 339.94 112.819H357.684C358.263 112.82 358.818 113.05 359.228 113.46C359.638 113.869 359.868 114.424 359.869 115.003V135.93C359.868 136.509 359.638 137.064 359.228 137.473C358.818 137.883 358.263 138.113 357.684 138.114Z" fill="#E6E6E6"/>
<path d="M297.47 130.349H279.727C279.147 130.348 278.592 130.118 278.182 129.708C277.773 129.299 277.542 128.744 277.542 128.165V107.238C277.542 106.659 277.773 106.104 278.182 105.695C278.592 105.285 279.147 105.055 279.727 105.054H297.47C298.05 105.055 298.605 105.285 299.015 105.695C299.424 106.104 299.655 106.659 299.655 107.238V128.165C299.655 128.744 299.424 129.299 299.015 129.708C298.605 130.118 298.05 130.348 297.47 130.349Z" fill="#FF6584"/>
<path d="M262.993 138.114H245.25C244.67 138.113 244.115 137.883 243.705 137.473C243.296 137.064 243.065 136.509 243.064 135.93V115.003C243.065 114.424 243.296 113.869 243.705 113.46C244.115 113.05 244.67 112.82 245.25 112.819H262.993C263.573 112.82 264.128 113.05 264.538 113.46C264.947 113.869 265.178 114.424 265.178 115.003V135.93C265.178 136.509 264.947 137.064 264.538 137.473C264.128 137.883 263.573 138.113 262.993 138.114Z" fill="#E6E6E6"/>
<path d="M188.698 171.115H170.954C170.375 171.114 169.819 170.884 169.41 170.474C169 170.065 168.769 169.51 168.769 168.931V148.004C168.769 147.425 169 146.87 169.41 146.461C169.819 146.051 170.375 145.821 170.954 145.82H188.698C189.277 145.821 189.832 146.051 190.242 146.461C190.652 146.87 190.882 147.425 190.883 148.004V168.931C190.882 169.51 190.652 170.065 190.242 170.474C189.832 170.884 189.277 171.114 188.698 171.115Z" fill="#E6E6E6"/>
<path d="M98.8628 143.452H81.1192C80.5399 143.451 79.9845 143.221 79.5748 142.812C79.1652 142.402 78.9347 141.847 78.9341 141.268V120.342C78.9347 119.763 79.1652 119.207 79.5748 118.798C79.9845 118.389 80.5399 118.158 81.1192 118.158H98.8628C99.4422 118.158 99.9976 118.389 100.407 118.798C100.817 119.207 101.047 119.763 101.048 120.342V141.268C101.047 141.847 100.817 142.402 100.407 142.812C99.9976 143.221 99.4422 143.451 98.8628 143.452Z" fill="#FF6584"/>
<path d="M148.879 105.112H131.135C130.556 105.112 130 104.881 129.591 104.472C129.181 104.063 128.951 103.507 128.95 102.928V82.002C128.951 81.423 129.181 80.8679 129.591 80.4585C130 80.049 130.556 79.8188 131.135 79.8181H148.879C149.458 79.8188 150.013 80.049 150.423 80.4585C150.833 80.8679 151.063 81.423 151.064 82.002V102.928C151.063 103.507 150.833 104.063 150.423 104.472C150.013 104.881 149.458 105.112 148.879 105.112Z" fill="#E6E6E6"/>
<path d="M134.352 47.0752H106.673C106.158 47.0752 105.664 46.8707 105.3 46.5066C104.936 46.1426 104.731 45.6488 104.731 45.134C104.731 44.6191 104.936 44.1254 105.3 43.7613C105.664 43.3972 106.158 43.1927 106.673 43.1927H134.352C134.867 43.1927 135.361 43.3972 135.726 43.7613C136.09 44.1254 136.294 44.6191 136.294 45.134C136.294 45.6488 136.09 46.1426 135.726 46.5066C135.361 46.8707 134.867 47.0752 134.352 47.0752Z" fill="#CCCCCC"/>
<path d="M212.533 47.0752H184.854C184.339 47.0752 183.845 46.8707 183.48 46.5066C183.116 46.1426 182.911 45.6488 182.911 45.134C182.911 44.6191 183.116 44.1254 183.48 43.7613C183.845 43.3972 184.339 43.1927 184.854 43.1927H212.533C213.048 43.1927 213.542 43.3972 213.906 43.7613C214.27 44.1254 214.475 44.6191 214.475 45.134C214.475 45.6488 214.27 46.1426 213.906 46.5066C213.542 46.8707 213.048 47.0752 212.533 47.0752Z" fill="#CCCCCC"/>
<path d="M285.857 47.0752H258.178C257.663 47.0752 257.169 46.8707 256.805 46.5066C256.44 46.1426 256.236 45.6488 256.236 45.134C256.236 44.6191 256.44 44.1254 256.805 43.7613C257.169 43.3972 257.663 43.1927 258.178 43.1927H285.857C286.372 43.1927 286.866 43.3972 287.23 43.7613C287.595 44.1254 287.799 44.6191 287.799 45.134C287.799 45.6488 287.595 46.1426 287.23 46.5066C286.866 46.8707 286.372 47.0752 285.857 47.0752Z" fill="#CCCCCC"/>
<path d="M354.325 47.0752H326.647C326.132 47.0752 325.638 46.8707 325.273 46.5066C324.909 46.1426 324.704 45.6488 324.704 45.134C324.704 44.6191 324.909 44.1254 325.273 43.7613C325.638 43.3972 326.132 43.1927 326.647 43.1927H354.325C354.841 43.1927 355.335 43.3972 355.699 43.7613C356.063 44.1254 356.268 44.6191 356.268 45.134C356.268 45.6488 356.063 46.1426 355.699 46.5066C355.335 46.8707 354.841 47.0752 354.325 47.0752Z" fill="#CCCCCC"/>
<path d="M72.3576 189.219C71.6472 189.149 70.9606 188.925 70.3463 188.561C69.732 188.198 69.2048 187.704 68.8021 187.115C68.3993 186.526 68.1306 185.856 68.015 185.152C67.8994 184.448 67.9397 183.727 68.1329 183.041L55.6858 171.46L62.2669 169.792L74.5066 179.714C75.6396 180.114 76.586 180.917 77.1665 181.969C77.7471 183.02 77.9214 184.248 77.6565 185.42C77.3916 186.592 76.7059 187.626 75.7293 188.326C74.7526 189.026 73.553 189.344 72.3576 189.219Z" fill="#FFB8B8"/>
<path d="M89.5452 274.809H95.4985L98.3305 251.86H89.5442L89.5452 274.809Z" fill="#FFB8B8"/>
<path d="M106.98 280.333L88.2697 280.334L88.2694 273.109L99.7507 273.109C101.668 273.109 103.507 273.87 104.862 275.225C106.218 276.579 106.98 278.417 106.98 280.333L106.98 280.333Z" fill="#2F2E41"/>
<path d="M48.7268 270.513L54.4801 272.044L63.1241 250.595L54.6336 248.336L48.7268 270.513Z" fill="#FFB8B8"/>
<path d="M64.1531 280.335L46.0724 275.525L47.9319 268.544L59.0268 271.495C60.8795 271.988 62.4605 273.196 63.4218 274.854C64.3832 276.512 64.6462 278.483 64.1531 280.335Z" fill="#2F2E41"/>
<path d="M97.0996 270.464H88.0155C87.4417 270.466 86.8879 270.253 86.4632 269.868C86.0385 269.482 85.7735 268.952 85.7205 268.381L80.2059 211.147C80.1655 210.727 79.9804 210.334 79.6822 210.036C79.384 209.738 78.9913 209.552 78.5713 209.511C78.1513 209.47 77.7301 209.576 77.3798 209.811C77.0295 210.046 76.7718 210.396 76.6509 210.8L60.6392 264.281C60.4699 264.849 60.0875 265.331 59.5718 265.624C59.0561 265.918 58.4469 266.001 57.8714 265.856L49.4205 263.744C49.1256 263.671 48.8481 263.54 48.6041 263.358C48.3601 263.177 48.1544 262.949 47.9988 262.688C47.8433 262.427 47.7409 262.138 47.6976 261.837C47.6543 261.537 47.6709 261.23 47.7466 260.936C47.8846 260.397 61.5426 207.053 61.6618 206.504C64.7564 183.71 68.4587 177.602 70.4477 174.321C70.6123 174.05 70.7636 173.8 70.8998 173.564C71.0703 173.269 72.1199 170.339 72.7857 168.437C72.8721 168.127 73.0219 167.839 73.2254 167.59C73.4289 167.342 73.6818 167.138 73.9681 166.992C82.3255 162.72 92.1037 165.677 94.9016 166.685C95.3654 166.848 95.7638 167.157 96.037 167.566C104.43 180.219 100.311 253.705 99.4003 268.308C99.3624 268.892 99.1035 269.44 98.6763 269.84C98.249 270.24 97.6853 270.464 97.0996 270.464Z" fill="#2F2E41"/>
<path d="M73.6569 125.494C80.2438 125.494 85.5835 120.158 85.5835 113.575C85.5835 106.992 80.2438 101.655 73.6569 101.655C67.07 101.655 61.7302 106.992 61.7302 113.575C61.7302 120.158 67.07 125.494 73.6569 125.494Z" fill="#FFB8B8"/>
<path d="M72.3931 170.751L72.3074 170.668C72.1466 170.513 56.2558 154.954 58.3123 140.567C59.1919 134.413 64.1736 130.481 72.7187 129.196C75.858 128.73 79.0602 129.412 81.7365 131.117C84.4128 132.822 86.3835 135.435 87.2864 138.475L95.7357 167.344L72.3931 170.751Z" fill="#CCCCCC"/>
<path d="M64.2597 181.817L52.9365 170.572C52.1623 169.799 51.6001 168.84 51.3042 167.786C51.0083 166.733 50.9885 165.622 51.2468 164.559L56.7284 142.274C56.8926 141.606 57.1922 140.979 57.6086 140.431C58.025 139.884 58.5495 139.428 59.1494 139.091C59.7493 138.754 60.412 138.544 61.0965 138.474C61.7809 138.404 62.4725 138.474 63.1285 138.682C64.3788 139.085 65.4231 139.958 66.0403 141.117C66.6574 142.276 66.799 143.63 66.4349 144.891L60.6639 164.496L69.9961 174.511L64.2597 181.817Z" fill="#CCCCCC"/>
<path d="M124.994 143.44C124.694 144.087 124.256 144.662 123.711 145.122C123.165 145.582 122.526 145.917 121.837 146.104C121.147 146.29 120.426 146.323 119.723 146.201C119.019 146.078 118.352 145.803 117.766 145.395L102.65 153.225L103.318 146.574L116.719 138.285C117.47 137.348 118.54 136.718 119.725 136.516C120.909 136.314 122.127 136.554 123.147 137.189C124.167 137.825 124.918 138.812 125.259 139.964C125.599 141.116 125.505 142.353 124.994 143.44H124.994Z" fill="#FFB8B8"/>
<path d="M116.116 148.391L101.38 154.755C100.399 155.176 99.3263 155.337 98.2653 155.223C97.2042 155.109 96.1902 154.724 95.3209 154.106L76.5824 140.687C76.0232 140.287 75.5521 139.776 75.1984 139.186C74.8446 138.596 74.6158 137.94 74.526 137.258C74.4361 136.577 74.4872 135.884 74.6761 135.223C74.865 134.561 75.1877 133.946 75.6241 133.414C76.4628 132.404 77.6622 131.759 78.9682 131.617C80.2742 131.475 81.5843 131.847 82.6208 132.653L98.6883 145.292L111.46 140.354L116.116 148.391Z" fill="#CCCCCC"/>
<path d="M75.634 117.394C77.1054 115.552 79.8542 115.453 81.8753 114.237C84.5226 112.645 85.6171 109.088 84.764 106.12C83.9109 103.152 81.3949 100.839 78.5103 99.7332C75.6257 98.627 72.4164 98.6133 69.3735 99.1481C64.8428 99.9442 60.3822 102.058 57.6189 105.733C54.8557 109.409 54.1525 114.792 56.6568 118.649C57.8077 120.421 59.5845 121.884 60.044 123.947C60.6473 126.655 58.7468 129.266 56.7108 131.152C54.3912 133.3 51.7301 135.099 49.6979 137.52C47.6657 139.942 46.3106 143.25 47.2379 146.272C48.0148 148.803 50.2757 150.668 52.7549 151.602C55.2341 152.536 57.9343 152.671 60.5833 152.723C63.1555 152.773 65.8877 152.711 68.0546 151.325C70.3743 149.841 71.6129 147.026 71.7044 144.275C71.7959 141.523 70.8761 138.828 69.6433 136.367C68.9085 134.899 68.0541 133.478 67.5658 131.911C67.0775 130.345 66.993 128.567 67.7749 127.125C68.5968 125.608 70.2597 124.694 71.953 124.361C72.041 124.344 72.1341 124.329 72.2314 124.315C72.7132 124.252 73.1773 124.093 73.5956 123.846C74.014 123.599 74.3779 123.27 74.6654 122.879C74.9528 122.488 75.1579 122.042 75.2682 121.569C75.3784 121.096 75.3916 120.606 75.3068 120.128C75.1139 119.053 75.1306 118.025 75.634 117.394Z" fill="#2F2E41"/>
<path d="M234.653 275.317H228.699L225.867 252.368L234.653 252.368L234.653 275.317Z" fill="#A0616A"/>
<path d="M224.447 273.617H235.928V280.842H217.218C217.218 279.893 217.405 278.954 217.768 278.077C218.131 277.201 218.664 276.404 219.335 275.733C220.006 275.062 220.803 274.53 221.68 274.167C222.557 273.804 223.497 273.617 224.447 273.617Z" fill="#2F2E41"/>
<path d="M277.848 268.578L272.433 271.049L260.316 251.351L268.308 247.702L277.848 268.578Z" fill="#A0616A"/>
<path d="M267.859 271.269L278.302 266.502L281.306 273.073L264.287 280.842C263.892 279.979 263.672 279.047 263.638 278.099C263.604 277.151 263.757 276.205 264.089 275.316C264.42 274.427 264.924 273.612 265.571 272.918C266.218 272.223 266.995 271.663 267.859 271.269Z" fill="#2F2E41"/>
<path d="M260.511 197.938C261.082 197.509 261.551 196.96 261.886 196.33C262.222 195.7 262.415 195.004 262.452 194.292C262.489 193.579 262.369 192.867 262.101 192.206C261.833 191.545 261.423 190.95 260.9 190.465L267.899 174.595L259.008 176.101L253.726 190.94C252.967 191.872 252.577 193.049 252.629 194.249C252.681 195.449 253.172 196.589 254.009 197.451C254.845 198.314 255.969 198.84 257.168 198.929C258.366 199.019 259.556 198.666 260.511 197.938Z" fill="#A0616A"/>
<path d="M234.273 269.266H228.586C228.034 269.264 227.504 269.055 227.1 268.679C226.696 268.304 226.448 267.79 226.406 267.24L223.305 184.466C223.282 184.149 223.328 183.831 223.441 183.533C223.554 183.236 223.731 182.967 223.958 182.745C224.186 182.523 224.46 182.353 224.76 182.248C225.06 182.142 225.38 182.104 225.697 182.135L258.588 185.626C259.121 185.678 259.616 185.924 259.98 186.317C260.344 186.71 260.55 187.223 260.561 187.758L261.25 224.27C261.254 224.469 261.292 224.665 261.363 224.85L274.856 259.818C274.96 260.088 275.009 260.376 275.001 260.665C274.993 260.955 274.927 261.24 274.808 261.503C274.688 261.767 274.518 262.005 274.305 262.202C274.093 262.399 273.844 262.552 273.572 262.652L267.809 264.774C267.308 264.959 266.758 264.954 266.261 264.76C265.764 264.567 265.355 264.198 265.11 263.724L248.536 231.515C248.446 231.339 248.38 231.153 248.34 230.96L245.508 217.326C245.426 216.931 245.206 216.577 244.887 216.33C244.568 216.082 244.171 215.956 243.767 215.974C243.364 215.992 242.98 216.154 242.685 216.429C242.389 216.705 242.202 217.076 242.156 217.478L236.444 267.33C236.383 267.863 236.128 268.355 235.728 268.712C235.327 269.069 234.81 269.266 234.273 269.266Z" fill="#2F2E41"/>
<path d="M237.105 119.745C243.692 119.745 249.032 114.409 249.032 107.825C249.032 101.242 243.692 95.9057 237.105 95.9057C230.518 95.9057 225.178 101.242 225.178 107.825C225.178 114.409 230.518 119.745 237.105 119.745Z" fill="#A0616A"/>
<path d="M245.284 192.035C237.196 191.946 229.301 189.556 222.523 185.144L222.407 185.064L222.419 184.924L226.981 131.823C227.138 130.021 227.943 128.338 229.246 127.083C230.549 125.829 232.263 125.088 234.07 124.999C239.983 124.727 247.925 125.07 252.176 128.234C258.601 133.017 261.697 140.218 260.672 147.992C258.545 164.114 260.954 185.861 261.236 188.287L261.256 188.462L261.096 188.536C256.143 190.839 250.747 192.033 245.284 192.035Z" fill="#6C63FF"/>
<path d="M261.181 188.377C260.845 188.377 260.512 188.307 260.205 188.171C259.897 188.036 259.621 187.838 259.393 187.59L256.785 184.746C256.503 184.436 256.305 184.06 256.211 183.652C256.116 183.245 256.129 182.82 256.246 182.419L262.195 162.296L253.143 143.299C252.721 142.41 252.617 141.402 252.85 140.446C253.056 139.606 253.511 138.848 254.156 138.272C254.801 137.697 255.606 137.33 256.463 137.22C257.321 137.111 258.192 137.264 258.961 137.659C259.731 138.054 260.362 138.673 260.772 139.434L273.055 159.352C273.554 160.16 273.847 161.078 273.907 162.026C273.968 162.974 273.796 163.922 273.404 164.787L263.396 186.949C263.232 187.315 262.978 187.635 262.659 187.879C262.339 188.123 261.964 188.283 261.567 188.346C261.44 188.367 261.31 188.377 261.181 188.377Z" fill="#6C63FF"/>
<path d="M177.114 149.938C177.687 150.364 178.346 150.659 179.045 150.803C179.744 150.946 180.467 150.935 181.161 150.769C181.855 150.604 182.505 150.288 183.064 149.845C183.623 149.401 184.078 148.84 184.397 148.202L201.605 150.433L197.651 142.333L181.916 141.457C180.807 140.993 179.567 140.951 178.43 141.34C177.292 141.729 176.337 142.521 175.745 143.566C175.154 144.612 174.966 145.838 175.218 147.012C175.47 148.186 176.145 149.228 177.114 149.938V149.938Z" fill="#A0616A"/>
<path d="M215.044 154.362C214.745 154.362 214.445 154.341 214.149 154.3L187.076 150.547C186.634 150.486 186.214 150.316 185.853 150.053C185.493 149.789 185.204 149.44 185.012 149.037C184.95 148.907 184.899 148.773 184.858 148.635H184.858C184.753 148.276 184.724 147.9 184.772 147.53C184.82 147.16 184.944 146.804 185.137 146.484L187.377 142.772C187.618 142.375 187.957 142.047 188.362 141.819C188.766 141.59 189.222 141.47 189.687 141.468H189.69L213.288 141.495L230.912 125.714C231.732 124.982 232.779 124.554 233.878 124.501C234.842 124.457 235.798 124.705 236.618 125.214C237.438 125.723 238.085 126.469 238.473 127.353C238.86 128.236 238.971 129.217 238.79 130.165C238.609 131.113 238.144 131.983 237.458 132.662L219.872 152.21C219.263 152.887 218.519 153.428 217.687 153.799C216.856 154.17 215.955 154.361 215.044 154.362Z" fill="#6C63FF"/>
<path d="M238.461 118.43C239.551 115.909 240.473 112.551 238.383 110.769C237.17 109.735 235.423 109.733 233.835 109.604C229.359 109.242 224.751 107.184 222.564 103.264C220.376 99.3451 221.598 93.5172 225.725 91.7489C228.507 90.557 231.697 91.3689 234.609 92.1942L243.352 94.6722C245.95 95.4085 248.678 96.2205 250.548 98.1672C253.531 101.272 253.308 106.52 250.939 110.115C248.57 113.709 245.002 117.458 240.917 118.822L238.461 118.43Z" fill="#2F2E41"/>
<path d="M359.088 281H0.578156C0.502086 281 0.426723 280.985 0.35638 280.956C0.286037 280.928 0.222104 280.885 0.168237 280.831C0.114369 280.778 0.0716284 280.714 0.0424668 280.644C0.0133051 280.573 -0.00170898 280.498 -0.00170898 280.422C-0.00170898 280.346 0.0133051 280.271 0.0424668 280.201C0.0716284 280.13 0.114369 280.067 0.168237 280.013C0.222104 279.959 0.286037 279.917 0.35638 279.888C0.426723 279.859 0.502086 279.844 0.578156 279.844H359.088C359.164 279.844 359.24 279.859 359.31 279.888C359.38 279.917 359.444 279.959 359.498 280.013C359.552 280.067 359.595 280.13 359.624 280.201C359.653 280.271 359.668 280.346 359.668 280.422C359.668 280.498 359.653 280.573 359.624 280.644C359.595 280.714 359.552 280.778 359.498 280.831C359.444 280.885 359.38 280.928 359.31 280.956C359.24 280.985 359.164 281 359.088 281Z" fill="#3F3D56"/>
</g>
<defs>
<clipPath id="clip0">
<rect width="399" height="281" fill="white"/>
</clipPath>
</defs>
</svg>
