<svg width="447" height="287" viewBox="0 0 447 287" fill="none" xmlns="http://www.w3.org/2000/svg">
<g clip-path="url(#clip0)">
<path d="M417.543 285.953C411.752 282.072 408.835 274.689 408.72 267.711C408.682 265.371 409.271 262.657 411.364 261.617C411.963 261.319 412.633 261.192 413.299 261.251C413.965 261.31 414.602 261.552 415.14 261.95C415.678 262.349 416.095 262.888 416.346 263.509C416.598 264.13 416.673 264.808 416.564 265.469C417.34 263.192 418.347 261.001 419.569 258.93C420.603 257.177 422.056 255.352 424.082 255.185C426.433 254.992 428.397 257.279 428.73 259.619C429.064 261.958 428.214 264.286 427.379 266.496C427.615 265.495 428.097 264.569 428.783 263.804C429.468 263.038 430.334 262.457 431.302 262.113C432.269 261.769 433.308 261.674 434.321 261.836C435.335 261.998 436.292 262.413 437.105 263.041C439.404 264.819 440.162 268.091 439.583 270.942C439.005 273.793 437.306 276.288 435.428 278.507C433.225 281.109 430.674 283.487 427.621 284.998C424.567 286.508 420.956 287.086 417.708 286.062L417.543 285.953Z" fill="#F2F2F2"/>
<path d="M338.334 192.495C339.131 192.098 339.831 191.531 340.385 190.833C340.94 190.135 341.335 189.324 341.542 188.457C341.75 187.59 341.765 186.688 341.587 185.814C341.409 184.94 341.042 184.116 340.511 183.4L354.7 114.39L341.459 114.216L331.606 182.35C330.464 183.322 329.718 184.68 329.508 186.167C329.299 187.654 329.642 189.166 330.471 190.416C331.3 191.667 332.559 192.569 334.008 192.952C335.457 193.336 336.996 193.173 338.334 192.495V192.495Z" fill="#FFB8B8"/>
<path d="M402.829 188.912C403.479 188.303 403.989 187.559 404.321 186.731C404.653 185.904 404.8 185.014 404.751 184.123C404.703 183.233 404.46 182.364 404.04 181.578C403.62 180.792 403.033 180.107 402.32 179.573L396.226 109.379L383.487 113.003L393.487 181.116C392.67 182.375 392.342 183.89 392.566 185.375C392.79 186.859 393.55 188.21 394.701 189.171C395.853 190.132 397.316 190.636 398.814 190.588C400.312 190.541 401.741 189.944 402.829 188.912Z" fill="#FFB8B8"/>
<path d="M361.968 279.444L355.019 279.444L351.713 252.594L361.969 252.594L361.968 279.444Z" fill="#FFB8B8"/>
<path d="M350.055 277.455H363.457V285.907H341.617C341.617 283.666 342.506 281.516 344.088 279.93C345.671 278.345 347.817 277.455 350.055 277.455Z" fill="#2F2E41"/>
<path d="M393.143 279.444L386.194 279.444L382.888 252.594L393.144 252.594L393.143 279.444Z" fill="#FFB8B8"/>
<path d="M381.23 277.455H394.632V285.907H372.792C372.792 283.666 373.681 281.516 375.264 279.93C376.846 278.345 378.992 277.455 381.23 277.455Z" fill="#2F2E41"/>
<path d="M363.769 87.6069C371.457 87.6069 377.69 81.3632 377.69 73.6613C377.69 65.9593 371.457 59.7157 363.769 59.7157C356.08 59.7157 349.847 65.9593 349.847 73.6613C349.847 81.3632 356.08 87.6069 363.769 87.6069Z" fill="#FFB8B8"/>
<path d="M383.34 262.502C382.773 262.5 382.225 262.301 381.788 261.94C381.351 261.579 381.052 261.077 380.942 260.521L371.53 211.744C371.444 211.297 371.201 210.896 370.845 210.614C370.489 210.331 370.044 210.186 369.59 210.204C369.136 210.222 368.704 210.403 368.372 210.713C368.039 211.023 367.829 211.443 367.779 211.895L362.509 259.406C362.447 259.986 362.179 260.525 361.754 260.923C361.329 261.322 360.776 261.554 360.194 261.578L352.29 261.938C351.968 261.955 351.647 261.907 351.344 261.797C351.042 261.687 350.765 261.518 350.529 261.298C350.291 261.081 350.099 260.819 349.964 260.527C349.828 260.235 349.752 259.919 349.74 259.597L346.709 186.204C346.693 185.834 346.761 185.464 346.909 185.125C347.057 184.785 347.281 184.483 347.564 184.243L349.316 182.745C349.758 182.368 350.32 182.161 350.9 182.16H391.87C392.517 182.161 393.137 182.419 393.595 182.877C394.053 183.336 394.31 183.957 394.311 184.606V259.685C394.312 260.315 394.069 260.922 393.634 261.377C393.199 261.833 392.605 262.102 391.976 262.128L383.444 262.5C383.41 262.501 383.375 262.502 383.34 262.502Z" fill="#2F2E41"/>
<path d="M362.358 192.839C355.734 192.839 349.895 191.071 346.948 185.915C346.701 185.49 346.586 185.002 346.616 184.511L350.319 127.802C350.349 127.343 350.213 126.889 349.934 126.524L339.542 112.875C339.348 112.619 339.205 112.328 339.123 112.017C339.041 111.705 339.021 111.381 339.065 111.062C339.108 110.744 339.214 110.437 339.376 110.159C339.538 109.881 339.753 109.638 340.009 109.444L355.598 97.6137C355.925 97.3645 356.163 97.0161 356.277 96.6203L356.731 95.0284C356.872 94.5325 357.165 94.0939 357.57 93.7756C357.975 93.4573 358.47 93.2756 358.984 93.2565L370.423 92.8155C370.805 92.8027 371.184 92.8788 371.531 93.0379C371.878 93.1969 372.183 93.4345 372.423 93.732L373.641 95.256C373.796 95.4506 373.987 95.6127 374.205 95.733L393.335 106.323C393.713 106.532 394.028 106.838 394.25 107.21C394.471 107.581 394.59 108.004 394.595 108.437L394.596 108.471L394.588 108.503C390.129 127.128 390.379 150.67 395.377 182.592C395.39 183.079 395.258 183.558 394.998 183.969C394.737 184.38 394.36 184.704 393.914 184.899C389.774 186.695 374.704 192.839 362.358 192.839Z" fill="#6C63FF"/>
<path d="M350.709 134.343H337.752C337.42 134.343 337.091 134.275 336.786 134.144C336.48 134.012 336.205 133.82 335.977 133.578C335.749 133.336 335.572 133.05 335.458 132.737C335.345 132.424 335.296 132.091 335.315 131.759C335.508 128.452 335.888 122.164 336.269 117.205C336.817 110.069 343.797 106.557 343.868 106.522L344.004 106.455L348.717 109.451L353.103 131.418C353.173 131.773 353.165 132.139 353.077 132.49C352.99 132.841 352.825 133.168 352.596 133.448C352.367 133.727 352.079 133.953 351.753 134.107C351.427 134.262 351.07 134.343 350.709 134.343H350.709Z" fill="#6C63FF"/>
<path d="M386.212 133.131C385.87 133.129 385.533 133.055 385.221 132.914C384.91 132.773 384.631 132.568 384.404 132.313C384.176 132.057 384.004 131.757 383.9 131.43C383.796 131.104 383.761 130.76 383.797 130.419L386.188 108.383L390.808 104.994L390.913 105.006C390.963 105.011 395.884 105.627 398.089 111.148C399.658 115.079 402.056 122.346 403.346 126.327C403.449 126.647 403.486 126.985 403.453 127.32C403.42 127.654 403.318 127.979 403.154 128.272C402.99 128.566 402.768 128.822 402.5 129.026C402.233 129.229 401.926 129.375 401.6 129.454L386.801 133.059C386.608 133.107 386.411 133.131 386.212 133.131Z" fill="#6C63FF"/>
<path d="M364.085 87.7041C367.063 82.9852 363.346 69.9952 355.245 69.6562C353.375 69.578 352.657 66.8521 352.021 65.0886C351.698 64.0663 351.612 62.9833 351.77 61.9225C351.928 60.8617 352.326 59.8512 352.934 58.9682C354.171 57.2087 355.875 55.8304 357.852 54.989C360.076 53.9654 362.494 53.4331 364.942 53.4281C367.389 53.4232 369.81 53.9458 372.038 54.9604C374.266 55.9751 376.25 57.458 377.856 59.3086C379.462 61.1591 380.651 63.3341 381.344 65.6858C382.036 68.0375 382.216 70.5109 381.87 72.9382C381.524 75.3655 380.661 77.6898 379.339 79.7535C378.017 81.8172 376.268 83.5719 374.21 84.8985C372.151 86.2252 369.832 87.0928 367.409 87.4424L364.085 87.7041Z" fill="#2F2E41"/>
<path d="M280.01 -3.8147e-06H3.96776C2.9158 0.00116542 1.90726 0.420293 1.16342 1.16541C0.419569 1.91054 0.00116723 2.9208 0 3.97456V191.347C0.00116873 192.401 0.41957 193.411 1.16342 194.156C1.90726 194.901 2.9158 195.32 3.96776 195.321H280.01C281.062 195.32 282.071 194.901 282.815 194.156C283.559 193.411 283.977 192.401 283.978 191.347V3.97456C283.977 2.9208 283.559 1.91054 282.815 1.16541C282.071 0.420293 281.062 0.00116542 280.01 -3.8147e-06ZM282.845 191.347C282.844 192.1 282.546 192.822 282.014 193.354C281.483 193.886 280.762 194.185 280.01 194.186H3.96776C3.2162 194.185 2.4955 193.886 1.96406 193.354C1.43263 192.822 1.13395 192.1 1.13365 191.347V3.97456C1.13395 3.22171 1.43263 2.49978 1.96406 1.96744C2.4955 1.43509 3.2162 1.13589 3.96776 1.13559H280.01C280.762 1.13589 281.483 1.43509 282.014 1.96744C282.546 2.49978 282.844 3.22171 282.845 3.97456V191.347Z" fill="#3F3D56"/>
<path d="M283.411 15.9209H0.566772V17.0565H283.411V15.9209Z" fill="#3F3D56"/>
<path d="M10.2028 11.9237C12.0811 11.9237 13.6038 10.3984 13.6038 8.51692C13.6038 6.63541 12.0811 5.11015 10.2028 5.11015C8.32453 5.11015 6.80188 6.63541 6.80188 8.51692C6.80188 10.3984 8.32453 11.9237 10.2028 11.9237Z" fill="#3F3D56"/>
<path d="M19.9805 11.9237C21.8588 11.9237 23.3815 10.3984 23.3815 8.51692C23.3815 6.63541 21.8588 5.11015 19.9805 5.11015C18.1022 5.11015 16.5796 6.63541 16.5796 8.51692C16.5796 10.3984 18.1022 11.9237 19.9805 11.9237Z" fill="#3F3D56"/>
<path d="M29.7581 11.9237C31.6364 11.9237 33.159 10.3984 33.159 8.51692C33.159 6.63541 31.6364 5.11015 29.7581 5.11015C27.8798 5.11015 26.3572 6.63541 26.3572 8.51692C26.3572 10.3984 27.8798 11.9237 29.7581 11.9237Z" fill="#3F3D56"/>
<path d="M228.898 54.772H53.1832C50.8531 54.772 48.6184 53.8448 46.9708 52.1944C45.3231 50.5439 44.3975 48.3053 44.3975 45.9712C44.3975 43.6371 45.3231 41.3986 46.9708 39.7481C48.6184 38.0976 50.8531 37.1704 53.1832 37.1704H228.898C231.228 37.1704 233.463 38.0976 235.111 39.7481C236.758 41.3986 237.684 43.6371 237.684 45.9712C237.684 48.3053 236.758 50.5439 235.111 52.1944C233.463 53.8448 231.228 54.772 228.898 54.772ZM53.1832 38.306C51.1537 38.306 49.2074 39.1136 47.7724 40.5511C46.3373 41.9886 45.5311 43.9383 45.5311 45.9712C45.5311 48.0042 46.3373 49.9539 47.7724 51.3914C49.2074 52.8289 51.1537 53.6365 53.1832 53.6365H228.898C230.928 53.6365 232.874 52.8289 234.309 51.3914C235.744 49.9539 236.55 48.0042 236.55 45.9712C236.55 43.9383 235.744 41.9886 234.309 40.5511C232.874 39.1136 230.928 38.306 228.898 38.306H53.1832Z" fill="#3F3D56"/>
<path d="M98.529 99.6278H64.5196C62.1895 99.6278 59.9548 98.7006 58.3072 97.0501C56.6595 95.3996 55.7339 93.1611 55.7339 90.827C55.7339 88.4929 56.6595 86.2544 58.3072 84.6039C59.9548 82.9534 62.1895 82.0262 64.5196 82.0262H98.529C100.859 82.0262 103.094 82.9534 104.741 84.6039C106.389 86.2544 107.315 88.4929 107.315 90.827C107.315 93.1611 106.389 95.3996 104.741 97.0501C103.094 98.7006 100.859 99.6278 98.529 99.6278ZM64.5196 83.1618C62.4902 83.1618 60.5438 83.9694 59.1088 85.4069C57.6737 86.8444 56.8675 88.794 56.8675 90.827C56.8675 92.8599 57.6737 94.8096 59.1088 96.2471C60.5438 97.6846 62.4902 98.4922 64.5196 98.4922H98.529C100.558 98.4922 102.505 97.6846 103.94 96.2471C105.375 94.8096 106.181 92.8599 106.181 90.827C106.181 88.794 105.375 86.8444 103.94 85.4069C102.505 83.9694 100.558 83.1618 98.529 83.1618H64.5196Z" fill="#3F3D56"/>
<path d="M98.529 129.153H64.5196C62.1895 129.153 59.9548 128.226 58.3072 126.575C56.6595 124.925 55.7339 122.686 55.7339 120.352C55.7339 118.018 56.6595 115.78 58.3072 114.129C59.9548 112.479 62.1895 111.551 64.5196 111.551H98.529C100.859 111.551 103.094 112.479 104.741 114.129C106.389 115.78 107.315 118.018 107.315 120.352C107.315 122.686 106.389 124.925 104.741 126.575C103.094 128.226 100.859 129.153 98.529 129.153ZM64.5196 112.687C62.4902 112.687 60.5438 113.495 59.1088 114.932C57.6737 116.37 56.8675 118.319 56.8675 120.352C56.8675 122.385 57.6737 124.335 59.1088 125.772C60.5438 127.21 62.4902 128.018 64.5196 128.018H98.529C100.558 128.018 102.505 127.21 103.94 125.772C105.375 124.335 106.181 122.385 106.181 120.352C106.181 118.319 105.375 116.37 103.94 114.932C102.505 113.495 100.558 112.687 98.529 112.687H64.5196Z" fill="#3F3D56"/>
<path d="M98.529 158.678H64.5196C62.1895 158.678 59.9548 157.751 58.3072 156.101C56.6595 154.45 55.7339 152.212 55.7339 149.878C55.7339 147.543 56.6595 145.305 58.3072 143.655C59.9548 142.004 62.1895 141.077 64.5196 141.077H98.529C100.859 141.077 103.094 142.004 104.741 143.655C106.389 145.305 107.315 147.543 107.315 149.878C107.315 152.212 106.389 154.45 104.741 156.101C103.094 157.751 100.859 158.678 98.529 158.678ZM64.5196 142.212C62.4902 142.212 60.5438 143.02 59.1088 144.457C57.6737 145.895 56.8675 147.845 56.8675 149.878C56.8675 151.911 57.6737 153.86 59.1088 155.298C60.5438 156.735 62.4902 157.543 64.5196 157.543H98.529C100.558 157.543 102.505 156.735 103.94 155.298C105.375 153.86 106.181 151.911 106.181 149.878C106.181 147.845 105.375 145.895 103.94 144.457C102.505 143.02 100.558 142.212 98.529 142.212H64.5196Z" fill="#3F3D56"/>
<path d="M103.63 49.9458H56.0173C54.965 49.9458 53.9558 49.527 53.2117 48.7817C52.4676 48.0363 52.0496 47.0253 52.0496 45.9712C52.0496 44.9171 52.4676 43.9062 53.2117 43.1608C53.9558 42.4154 54.965 41.9967 56.0173 41.9967H103.63C104.683 41.9967 105.692 42.4154 106.436 43.1608C107.18 43.9062 107.598 44.9171 107.598 45.9712C107.598 47.0253 107.18 48.0363 106.436 48.7817C105.692 49.527 104.683 49.9458 103.63 49.9458Z" fill="#6C63FF"/>
<path d="M222.946 47.9585C222.162 47.9585 221.395 47.7254 220.742 47.2887C220.09 46.852 219.581 46.2312 219.281 45.505C218.98 44.7787 218.902 43.9795 219.055 43.2086C219.208 42.4376 219.586 41.7294 220.141 41.1735C220.696 40.6177 221.403 40.2391 222.172 40.0858C222.942 39.9324 223.74 40.0111 224.465 40.3119C225.19 40.6128 225.81 41.1222 226.246 41.7758C226.682 42.4294 226.914 43.1979 226.914 43.9839C226.913 45.0377 226.495 46.048 225.751 46.7931C225.007 47.5382 223.998 47.9573 222.946 47.9585ZM222.946 41.145C222.386 41.145 221.838 41.3115 221.372 41.6234C220.906 41.9354 220.543 42.3788 220.328 42.8975C220.114 43.4163 220.057 43.9871 220.167 44.5378C220.276 45.0885 220.546 45.5944 220.942 45.9914C221.339 46.3885 221.844 46.6588 222.394 46.7684C222.943 46.8779 223.513 46.8217 224.031 46.6068C224.549 46.392 224.992 46.0281 225.303 45.5612C225.614 45.0943 225.781 44.5454 225.781 43.9839C225.78 43.2313 225.481 42.5097 224.95 41.9775C224.418 41.4452 223.698 41.1458 222.946 41.145Z" fill="#3F3D56"/>
<path d="M229.084 51.5541C229.01 51.5542 228.936 51.5395 228.868 51.511C228.799 51.4824 228.736 51.4405 228.684 51.3877L224.701 47.3982C224.649 47.3455 224.607 47.2829 224.578 47.214C224.55 47.1451 224.535 47.0713 224.535 46.9967C224.535 46.9222 224.55 46.8484 224.578 46.7795C224.607 46.7106 224.649 46.648 224.701 46.5953C224.754 46.5426 224.816 46.5007 224.885 46.4722C224.954 46.4437 225.028 46.429 225.102 46.429C225.176 46.429 225.25 46.4437 225.319 46.4722C225.388 46.5007 225.45 46.5426 225.503 46.5953L229.485 50.5848C229.565 50.6642 229.618 50.7654 229.64 50.8755C229.662 50.9856 229.651 51.0998 229.608 51.2035C229.565 51.3073 229.493 51.3959 229.399 51.4583C229.306 51.5207 229.197 51.554 229.085 51.554L229.084 51.5541Z" fill="#3F3D56"/>
<path d="M220.679 96.221H201.407C199.979 96.221 198.609 95.6527 197.6 94.6412C196.59 93.6296 196.022 92.2576 196.022 90.827C196.022 89.3964 196.59 88.0244 197.6 87.0128C198.609 86.0013 199.979 85.4329 201.407 85.4329H220.679C222.107 85.4329 223.477 86.0013 224.487 87.0128C225.497 88.0244 226.064 89.3964 226.064 90.827C226.064 92.2576 225.497 93.6296 224.487 94.6412C223.477 95.6527 222.107 96.221 220.679 96.221Z" fill="#6C63FF"/>
<path d="M220.679 125.746H201.407C199.979 125.746 198.609 125.178 197.6 124.166C196.59 123.155 196.022 121.783 196.022 120.352C196.022 118.922 196.59 117.55 197.6 116.538C198.609 115.527 199.979 114.958 201.407 114.958H220.679C222.107 114.958 223.477 115.527 224.487 116.538C225.497 117.55 226.064 118.922 226.064 120.352C226.064 121.783 225.497 123.155 224.487 124.166C223.477 125.178 222.107 125.746 220.679 125.746Z" fill="#6C63FF"/>
<path d="M220.679 155.272H201.407C199.979 155.272 198.609 154.703 197.6 153.692C196.59 152.68 196.022 151.308 196.022 149.878C196.022 148.447 196.59 147.075 197.6 146.063C198.609 145.052 199.979 144.484 201.407 144.484H220.679C222.107 144.484 223.477 145.052 224.487 146.063C225.497 147.075 226.064 148.447 226.064 149.878C226.064 151.308 225.497 152.68 224.487 153.692C223.477 154.703 222.107 155.272 220.679 155.272Z" fill="#6C63FF"/>
<path d="M446.433 287H305.861C305.711 287 305.567 286.94 305.46 286.834C305.354 286.727 305.294 286.583 305.294 286.432C305.294 286.282 305.354 286.137 305.46 286.031C305.567 285.924 305.711 285.864 305.861 285.864H446.433C446.583 285.864 446.728 285.924 446.834 286.031C446.94 286.137 447 286.282 447 286.432C447 286.583 446.94 286.727 446.834 286.834C446.728 286.94 446.583 287 446.433 287Z" fill="#3F3D56"/>
</g>
<defs>
<clipPath id="clip0">
<rect width="447" height="287" fill="white"/>
</clipPath>
</defs>
</svg>
