<svg width="85" height="17" viewBox="0 0 85 17" fill="none" xmlns="http://www.w3.org/2000/svg">
<path d="M10.34 3.62C10.3667 4.16667 10.4 4.78667 10.44 5.48C10.4933 6.17333 10.5467 6.89333 10.6 7.64C10.6667 8.37333 10.7333 9.10667 10.8 9.84C10.8667 10.5733 10.9333 11.2533 11 11.88C11.3467 11.2 11.7 10.4667 12.06 9.68C12.42 8.89333 12.78 8.08 13.14 7.24C13.5 6.4 13.8533 5.54667 14.2 4.68C14.56 3.81333 14.9 2.96667 15.22 2.14H18.52C17.48 4.67333 16.42 7.08667 15.34 9.38C14.26 11.66 13.1 13.8667 11.86 16H8.94C8.83333 15.2667 8.73333 14.5667 8.64 13.9C8.56 13.22 8.48 12.5533 8.4 11.9C8.33333 11.2467 8.26667 10.5867 8.2 9.92C8.14667 9.25333 8.09333 8.56 8.04 7.84C7.28 9.25333 6.52667 10.64 5.78 12C5.04667 13.3467 4.26 14.68 3.42 16H0.5C0.393334 14.76 0.313333 13.5333 0.26 12.32C0.22 11.1067 0.2 9.87333 0.2 8.62C0.2 7.54 0.22 6.46667 0.26 5.4C0.3 4.32 0.353333 3.23333 0.42 2.14H3.56C3.49333 3.31333 3.42667 4.46667 3.36 5.6C3.30667 6.72 3.28 7.88667 3.28 9.1C3.28 9.55333 3.28 10.0133 3.28 10.48C3.28 10.9467 3.29333 11.4133 3.32 11.88C3.69333 11.2267 4.08667 10.5333 4.5 9.8C4.91333 9.06667 5.32 8.33333 5.72 7.6C6.12 6.86667 6.5 6.16 6.86 5.48C7.22 4.78667 7.52667 4.16667 7.78 3.62H10.34ZM17.3203 11.88C17.3203 11.0267 17.467 10.2 17.7603 9.4C18.067 8.6 18.4936 7.89333 19.0403 7.28C19.587 6.65333 20.247 6.15333 21.0203 5.78C21.807 5.39333 22.6736 5.2 23.6203 5.2C24.087 5.2 24.5203 5.26667 24.9203 5.4C25.3203 5.53333 25.667 5.72667 25.9603 5.98C26.267 6.23333 26.5003 6.54667 26.6603 6.92C26.8336 7.28 26.9203 7.69333 26.9203 8.16C26.9203 8.90667 26.7536 9.54 26.4203 10.06C26.087 10.58 25.6203 11.0067 25.0203 11.34C24.4336 11.66 23.7336 11.8933 22.9203 12.04C22.107 12.1867 21.2203 12.26 20.2603 12.26C20.3536 12.82 20.5536 13.22 20.8603 13.46C21.1803 13.6867 21.6803 13.8 22.3603 13.8C22.787 13.8 23.2203 13.7667 23.6603 13.7C24.1003 13.62 24.5136 13.5067 24.9003 13.36L25.1203 15.7C24.747 15.8467 24.267 15.98 23.6803 16.1C23.107 16.22 22.4803 16.28 21.8003 16.28C20.9736 16.28 20.2736 16.1667 19.7003 15.94C19.1403 15.7 18.6803 15.38 18.3203 14.98C17.9736 14.58 17.7203 14.1133 17.5603 13.58C17.4003 13.0467 17.3203 12.48 17.3203 11.88ZM23.1403 7.56C22.4603 7.56 21.8603 7.80667 21.3403 8.3C20.8336 8.78 20.5003 9.42 20.3403 10.22C21.167 10.1933 21.8336 10.1267 22.3403 10.02C22.847 9.9 23.2403 9.76 23.5203 9.6C23.8003 9.44 23.987 9.26667 24.0803 9.08C24.1736 8.89333 24.2203 8.70667 24.2203 8.52C24.2203 7.88 23.8603 7.56 23.1403 7.56ZM34.3058 5.26C34.9458 5.26 35.4991 5.37333 35.9658 5.6C36.4324 5.82667 36.8191 6.13333 37.1258 6.52C37.4324 6.90667 37.6591 7.36 37.8058 7.88C37.9524 8.4 38.0258 8.96 38.0258 9.56C38.0258 10.48 37.8524 11.3533 37.5058 12.18C37.1724 12.9933 36.7124 13.7067 36.1258 14.32C35.5391 14.92 34.8458 15.4 34.0458 15.76C33.2458 16.1067 32.3791 16.28 31.4458 16.28C31.3258 16.28 31.1124 16.2733 30.8058 16.26C30.5124 16.26 30.1724 16.2333 29.7858 16.18C29.3991 16.1267 28.9858 16.0467 28.5458 15.94C28.1191 15.8333 27.7124 15.6867 27.3258 15.5L30.7858 0.959999L33.8858 0.48L32.6458 5.64C32.9124 5.52 33.1791 5.42667 33.4458 5.36C33.7124 5.29333 33.9991 5.26 34.3058 5.26ZM31.7058 13.82C32.1724 13.82 32.6124 13.7067 33.0258 13.48C33.4391 13.2533 33.7924 12.9533 34.0858 12.58C34.3924 12.1933 34.6324 11.76 34.8058 11.28C34.9791 10.8 35.0658 10.3 35.0658 9.78C35.0658 9.14 34.9591 8.64 34.7458 8.28C34.5324 7.92 34.1391 7.74 33.5658 7.74C33.3791 7.74 33.1324 7.77333 32.8258 7.84C32.5324 7.90667 32.2658 8.04667 32.0258 8.26L30.7058 13.74C30.7858 13.7533 30.8524 13.7667 30.9058 13.78C30.9724 13.7933 31.0391 13.8067 31.1058 13.82C31.1724 13.82 31.2524 13.82 31.3458 13.82C31.4391 13.82 31.5591 13.82 31.7058 13.82ZM43.4097 9.28C44.2097 8.64 44.963 7.98667 45.6697 7.32C46.3764 6.65333 46.983 6.04 47.4897 5.48H50.8497C50.103 6.30667 49.323 7.12 48.5097 7.92C47.7097 8.70667 46.7897 9.54667 45.7497 10.44C46.0297 10.7867 46.3097 11.1867 46.5897 11.64C46.883 12.0933 47.1564 12.5667 47.4097 13.06C47.6764 13.5533 47.9164 14.0533 48.1297 14.56C48.3564 15.0667 48.543 15.5467 48.6897 16H45.3697C45.2497 15.6533 45.0964 15.2733 44.9097 14.86C44.7364 14.4467 44.5364 14.04 44.3097 13.64C44.0964 13.2267 43.8697 12.8267 43.6297 12.44C43.3897 12.0533 43.1497 11.7067 42.9097 11.4L41.7897 16H38.8297L42.4297 0.959999L45.5297 0.48L43.4097 9.28ZM59.6272 11.46C59.4405 12.22 59.3872 12.9867 59.4672 13.76C59.5472 14.52 59.7005 15.2 59.9272 15.8L57.2672 16.18C57.1872 16.02 57.1139 15.8667 57.0472 15.72C56.9805 15.5733 56.9139 15.4067 56.8472 15.22C56.4739 15.5267 56.0605 15.78 55.6072 15.98C55.1539 16.18 54.6472 16.28 54.0872 16.28C53.4205 16.28 52.8472 16.1667 52.3672 15.94C51.9005 15.7 51.5139 15.3867 51.2072 15C50.9139 14.6 50.7005 14.14 50.5672 13.62C50.4339 13.0867 50.3672 12.52 50.3672 11.92C50.3672 11 50.5272 10.1333 50.8472 9.32C51.1805 8.50667 51.6339 7.8 52.2072 7.2C52.7939 6.58667 53.4805 6.10667 54.2672 5.76C55.0539 5.41333 55.9072 5.24 56.8272 5.24C56.9472 5.24 57.1539 5.24667 57.4472 5.26C57.7539 5.27333 58.1005 5.30667 58.4872 5.36C58.8739 5.4 59.2805 5.47333 59.7072 5.58C60.1339 5.68667 60.5405 5.83333 60.9272 6.02L59.6272 11.46ZM57.5472 7.78C57.3739 7.75333 57.2139 7.73333 57.0672 7.72C56.9339 7.70667 56.7672 7.7 56.5672 7.7C56.1139 7.7 55.6872 7.81333 55.2872 8.04C54.9005 8.26667 54.5605 8.56667 54.2672 8.94C53.9739 9.3 53.7405 9.72 53.5672 10.2C53.4072 10.68 53.3272 11.18 53.3272 11.7C53.3272 12.34 53.4339 12.8467 53.6472 13.22C53.8605 13.5933 54.2539 13.78 54.8272 13.78C55.1339 13.78 55.4072 13.72 55.6472 13.6C55.9005 13.48 56.1672 13.28 56.4472 13C56.4739 12.6667 56.5139 12.32 56.5672 11.96C56.6339 11.5867 56.7005 11.2467 56.7672 10.94L57.5472 7.78ZM63.945 5.96C64.1717 5.89333 64.4117 5.82 64.665 5.74C64.9317 5.64667 65.225 5.56667 65.545 5.5C65.8783 5.42 66.245 5.36 66.645 5.32C67.0583 5.26667 67.5317 5.24 68.065 5.24C68.705 5.24 69.2317 5.32 69.645 5.48C70.0717 5.64 70.4583 5.88 70.805 6.2C71.2983 5.92 71.785 5.69333 72.265 5.52C72.7583 5.33333 73.3317 5.24 73.985 5.24C74.6117 5.24 75.145 5.32667 75.585 5.5C76.0383 5.66 76.4117 5.9 76.705 6.22C76.9983 6.52667 77.2117 6.9 77.345 7.34C77.4783 7.76667 77.545 8.24 77.545 8.76C77.545 9 77.525 9.25333 77.485 9.52C77.4583 9.78667 77.4117 10.0533 77.345 10.32L75.985 16H73.005L74.325 10.44C74.365 10.2533 74.405 10.0467 74.445 9.82C74.4983 9.58 74.525 9.34667 74.525 9.12C74.525 8.74667 74.4383 8.42667 74.265 8.16C74.0917 7.88 73.7517 7.74 73.245 7.74C72.965 7.74 72.6983 7.79333 72.445 7.9C72.1917 7.99333 71.965 8.09333 71.765 8.2C71.7917 8.30667 71.805 8.40667 71.805 8.5C71.805 8.59333 71.805 8.68 71.805 8.76C71.805 9 71.785 9.25333 71.745 9.52C71.7183 9.78667 71.6717 10.0533 71.605 10.32L70.245 16H67.265L68.585 10.44C68.625 10.2533 68.665 10.0467 68.705 9.82C68.7583 9.58 68.785 9.34667 68.785 9.12C68.785 8.74667 68.6983 8.42667 68.525 8.16C68.3517 7.88 68.0117 7.74 67.505 7.74C67.2917 7.74 67.1117 7.75333 66.965 7.78C66.8183 7.79333 66.645 7.82 66.445 7.86L64.505 16H61.525L63.945 5.96ZM81.3991 16H78.4391L80.9391 5.48H83.9191L81.3991 16ZM82.8391 4.2C82.4257 4.2 82.0524 4.08 81.7191 3.84C81.3857 3.58667 81.2191 3.20667 81.2191 2.7C81.2191 2.42 81.2724 2.16 81.3791 1.92C81.4991 1.66667 81.6524 1.45333 81.8391 1.28C82.0257 1.09333 82.2391 0.946666 82.4791 0.84C82.7324 0.733333 82.9991 0.679999 83.2791 0.679999C83.6924 0.679999 84.0657 0.806666 84.3991 1.06C84.7324 1.3 84.8991 1.67333 84.8991 2.18C84.8991 2.46 84.8391 2.72667 84.7191 2.98C84.6124 3.22 84.4657 3.43333 84.2791 3.62C84.0924 3.79333 83.8724 3.93333 83.6191 4.04C83.3791 4.14667 83.1191 4.2 82.8391 4.2Z" fill="black"/>
</svg>
