<svg width="1440" height="954" viewBox="0 0 1440 954" fill="none" xmlns="http://www.w3.org/2000/svg">
<g clip-path="url(#clip0)">
<path d="M1440 0H1V954H1440V0Z" fill="url(#paint0_linear)"/>
<g opacity="0.5">
<path opacity="0.5" d="M55.7185 39.5804C55.7185 41.4616 54.1825 42.9972 52.3009 42.9972C50.4193 42.9972 48.8833 41.4616 48.8833 39.5804C48.8833 37.6993 50.4193 36.1637 52.3009 36.1637C54.1825 36.1637 55.7185 37.6993 55.7185 39.5804Z" fill="white" fill-opacity="0.4"/>
<path opacity="0.5" d="M81.6962 42.9972C83.5837 42.9972 85.1138 41.4674 85.1138 39.5804C85.1138 37.6934 83.5837 36.1637 81.6962 36.1637C79.8087 36.1637 78.2786 37.6934 78.2786 39.5804C78.2786 41.4674 79.8087 42.9972 81.6962 42.9972Z" fill="white" fill-opacity="0.4"/>
<path opacity="0.5" d="M111.072 42.9972C112.96 42.9972 114.49 41.4674 114.49 39.5804C114.49 37.6934 112.96 36.1637 111.072 36.1637C109.185 36.1637 107.655 37.6934 107.655 39.5804C107.655 41.4674 109.185 42.9972 111.072 42.9972Z" fill="white" fill-opacity="0.4"/>
<path opacity="0.5" d="M143.885 39.5804C143.885 41.4616 142.349 42.9972 140.467 42.9972C138.586 42.9972 137.05 41.4616 137.05 39.5804C137.05 37.6993 138.586 36.1637 140.467 36.1637C142.349 36.1637 143.885 37.6993 143.885 39.5804Z" fill="white" fill-opacity="0.4"/>
<path opacity="0.5" d="M169.843 42.9972C171.731 42.9972 173.261 41.4674 173.261 39.5804C173.261 37.6934 171.731 36.1637 169.843 36.1637C167.956 36.1637 166.426 37.6934 166.426 39.5804C166.426 41.4674 167.956 42.9972 169.843 42.9972Z" fill="white" fill-opacity="0.4"/>
<path opacity="0.5" d="M199.238 42.9972C201.126 42.9972 202.656 41.4674 202.656 39.5804C202.656 37.6934 201.126 36.1637 199.238 36.1637C197.351 36.1637 195.821 37.6934 195.821 39.5804C195.821 41.4674 197.351 42.9972 199.238 42.9972Z" fill="white" fill-opacity="0.4"/>
<path opacity="0.5" d="M228.615 42.9972C230.502 42.9972 232.032 41.4674 232.032 39.5804C232.032 37.6934 230.502 36.1637 228.615 36.1637C226.727 36.1637 225.197 37.6934 225.197 39.5804C225.197 41.4674 226.727 42.9972 228.615 42.9972Z" fill="white" fill-opacity="0.4"/>
<path opacity="0.5" d="M258.01 42.9972C259.897 42.9972 261.427 41.4674 261.427 39.5804C261.427 37.6934 259.897 36.1637 258.01 36.1637C256.122 36.1637 254.592 37.6934 254.592 39.5804C254.592 41.4674 256.122 42.9972 258.01 42.9972Z" fill="white" fill-opacity="0.4"/>
<path opacity="0.5" d="M55.7185 68.9491C55.7185 70.8302 54.1825 72.3658 52.3009 72.3658C50.4193 72.3658 48.8833 70.8302 48.8833 68.9491C48.8833 67.0679 50.4193 65.5323 52.3009 65.5323C54.1825 65.5515 55.7185 67.0679 55.7185 68.9491Z" fill="white" fill-opacity="0.4"/>
<path opacity="0.5" d="M81.6962 72.3658C83.5837 72.3658 85.1138 70.8361 85.1138 68.9491C85.1138 67.062 83.5837 65.5323 81.6962 65.5323C79.8087 65.5323 78.2786 67.062 78.2786 68.9491C78.2786 70.8361 79.8087 72.3658 81.6962 72.3658Z" fill="white" fill-opacity="0.4"/>
<path opacity="0.5" d="M111.072 72.3658C112.96 72.3658 114.49 70.8361 114.49 68.9491C114.49 67.062 112.96 65.5323 111.072 65.5323C109.185 65.5323 107.655 67.062 107.655 68.9491C107.655 70.8361 109.185 72.3658 111.072 72.3658Z" fill="white" fill-opacity="0.4"/>
<path opacity="0.5" d="M143.885 68.9491C143.885 70.8302 142.349 72.3658 140.467 72.3658C138.586 72.3658 137.05 70.8302 137.05 68.9491C137.05 67.0679 138.586 65.5323 140.467 65.5323C142.349 65.5515 143.885 67.0679 143.885 68.9491Z" fill="white" fill-opacity="0.4"/>
<path opacity="0.5" d="M169.843 72.3658C171.731 72.3658 173.261 70.8361 173.261 68.9491C173.261 67.062 171.731 65.5323 169.843 65.5323C167.956 65.5323 166.426 67.062 166.426 68.9491C166.426 70.8361 167.956 72.3658 169.843 72.3658Z" fill="white" fill-opacity="0.4"/>
<path opacity="0.5" d="M199.238 72.3658C201.126 72.3658 202.656 70.8361 202.656 68.9491C202.656 67.062 201.126 65.5323 199.238 65.5323C197.351 65.5323 195.821 67.062 195.821 68.9491C195.821 70.8361 197.351 72.3658 199.238 72.3658Z" fill="white" fill-opacity="0.4"/>
<path opacity="0.5" d="M228.615 72.3658C230.502 72.3658 232.032 70.8361 232.032 68.9491C232.032 67.062 230.502 65.5323 228.615 65.5323C226.727 65.5323 225.197 67.062 225.197 68.9491C225.197 70.8361 226.727 72.3658 228.615 72.3658Z" fill="white" fill-opacity="0.4"/>
<path opacity="0.5" d="M258.01 72.3658C259.897 72.3658 261.427 70.8361 261.427 68.9491C261.427 67.062 259.897 65.5323 258.01 65.5323C256.122 65.5323 254.592 67.062 254.592 68.9491C254.592 70.8361 256.122 72.3658 258.01 72.3658Z" fill="white" fill-opacity="0.4"/>
<path opacity="0.5" d="M55.7185 98.3368C55.7185 100.218 54.1825 101.754 52.3009 101.754C50.4193 101.754 48.8833 100.218 48.8833 98.3368C48.8833 96.4557 50.4193 94.9201 52.3009 94.9201C54.1825 94.9201 55.7185 96.4557 55.7185 98.3368Z" fill="white" fill-opacity="0.4"/>
<path opacity="0.5" d="M81.6962 101.754C83.5837 101.754 85.1138 100.224 85.1138 98.3368C85.1138 96.4498 83.5837 94.9201 81.6962 94.9201C79.8087 94.9201 78.2786 96.4498 78.2786 98.3368C78.2786 100.224 79.8087 101.754 81.6962 101.754Z" fill="white" fill-opacity="0.4"/>
<path opacity="0.5" d="M111.072 101.754C112.96 101.754 114.49 100.224 114.49 98.3368C114.49 96.4498 112.96 94.9201 111.072 94.9201C109.185 94.9201 107.655 96.4498 107.655 98.3368C107.655 100.224 109.185 101.754 111.072 101.754Z" fill="white" fill-opacity="0.4"/>
<path opacity="0.5" d="M143.885 98.3368C143.885 100.218 142.349 101.754 140.467 101.754C138.586 101.754 137.05 100.218 137.05 98.3368C137.05 96.4557 138.586 94.9201 140.467 94.9201C142.349 94.9201 143.885 96.4557 143.885 98.3368Z" fill="white" fill-opacity="0.4"/>
<path opacity="0.5" d="M169.843 101.754C171.731 101.754 173.261 100.224 173.261 98.3368C173.261 96.4498 171.731 94.9201 169.843 94.9201C167.956 94.9201 166.426 96.4498 166.426 98.3368C166.426 100.224 167.956 101.754 169.843 101.754Z" fill="white" fill-opacity="0.4"/>
<path opacity="0.5" d="M199.238 101.754C201.126 101.754 202.656 100.224 202.656 98.3368C202.656 96.4498 201.126 94.9201 199.238 94.9201C197.351 94.9201 195.821 96.4498 195.821 98.3368C195.821 100.224 197.351 101.754 199.238 101.754Z" fill="white" fill-opacity="0.4"/>
<path opacity="0.5" d="M228.615 101.754C230.502 101.754 232.032 100.224 232.032 98.3368C232.032 96.4498 230.502 94.9201 228.615 94.9201C226.727 94.9201 225.197 96.4498 225.197 98.3368C225.197 100.224 226.727 101.754 228.615 101.754Z" fill="white" fill-opacity="0.4"/>
<path opacity="0.5" d="M258.01 101.754C259.897 101.754 261.427 100.224 261.427 98.3368C261.427 96.4498 259.897 94.9201 258.01 94.9201C256.122 94.9201 254.592 96.4498 254.592 98.3368C254.592 100.224 256.122 101.754 258.01 101.754Z" fill="white" fill-opacity="0.4"/>
<path opacity="0.5" d="M55.7185 127.705C55.7185 129.587 54.1825 131.122 52.3009 131.122C50.4193 131.122 48.8833 129.587 48.8833 127.705C48.8833 125.824 50.4193 124.289 52.3009 124.289C54.1825 124.308 55.7185 125.824 55.7185 127.705Z" fill="white" fill-opacity="0.4"/>
<path opacity="0.5" d="M81.6962 131.122C83.5837 131.122 85.1138 129.592 85.1138 127.705C85.1138 125.818 83.5837 124.289 81.6962 124.289C79.8087 124.289 78.2786 125.818 78.2786 127.705C78.2786 129.592 79.8087 131.122 81.6962 131.122Z" fill="white" fill-opacity="0.4"/>
<path opacity="0.5" d="M111.072 131.122C112.96 131.122 114.49 129.592 114.49 127.705C114.49 125.818 112.96 124.289 111.072 124.289C109.185 124.289 107.655 125.818 107.655 127.705C107.655 129.592 109.185 131.122 111.072 131.122Z" fill="white" fill-opacity="0.4"/>
<path opacity="0.5" d="M143.885 127.705C143.885 129.587 142.349 131.122 140.467 131.122C138.586 131.122 137.05 129.587 137.05 127.705C137.05 125.824 138.586 124.289 140.467 124.289C142.349 124.308 143.885 125.824 143.885 127.705Z" fill="white" fill-opacity="0.4"/>
<path opacity="0.5" d="M169.843 131.122C171.731 131.122 173.261 129.592 173.261 127.705C173.261 125.818 171.731 124.289 169.843 124.289C167.956 124.289 166.426 125.818 166.426 127.705C166.426 129.592 167.956 131.122 169.843 131.122Z" fill="white" fill-opacity="0.4"/>
<path opacity="0.5" d="M199.238 131.122C201.126 131.122 202.656 129.592 202.656 127.705C202.656 125.818 201.126 124.289 199.238 124.289C197.351 124.289 195.821 125.818 195.821 127.705C195.821 129.592 197.351 131.122 199.238 131.122Z" fill="white" fill-opacity="0.4"/>
<path opacity="0.5" d="M228.615 131.122C230.502 131.122 232.032 129.592 232.032 127.705C232.032 125.818 230.502 124.289 228.615 124.289C226.727 124.289 225.197 125.818 225.197 127.705C225.197 129.592 226.727 131.122 228.615 131.122Z" fill="white" fill-opacity="0.4"/>
<path opacity="0.5" d="M258.01 131.122C259.897 131.122 261.427 129.592 261.427 127.705C261.427 125.818 259.897 124.289 258.01 124.289C256.122 124.289 254.592 125.818 254.592 127.705C254.592 129.592 256.122 131.122 258.01 131.122Z" fill="white" fill-opacity="0.4"/>
<path opacity="0.5" d="M55.7185 157.093C55.7185 158.974 54.1825 160.51 52.3009 160.51C50.4193 160.51 48.8833 158.974 48.8833 157.093C48.8833 155.212 50.4193 153.677 52.3009 153.677C54.1825 153.677 55.7185 155.212 55.7185 157.093Z" fill="white" fill-opacity="0.4"/>
<path opacity="0.5" d="M81.6962 160.51C83.5837 160.51 85.1138 158.98 85.1138 157.093C85.1138 155.206 83.5837 153.677 81.6962 153.677C79.8087 153.677 78.2786 155.206 78.2786 157.093C78.2786 158.98 79.8087 160.51 81.6962 160.51Z" fill="white" fill-opacity="0.4"/>
<path opacity="0.5" d="M111.072 160.51C112.96 160.51 114.49 158.98 114.49 157.093C114.49 155.206 112.96 153.677 111.072 153.677C109.185 153.677 107.655 155.206 107.655 157.093C107.655 158.98 109.185 160.51 111.072 160.51Z" fill="white" fill-opacity="0.4"/>
<path opacity="0.5" d="M143.885 157.093C143.885 158.974 142.349 160.51 140.467 160.51C138.586 160.51 137.05 158.974 137.05 157.093C137.05 155.212 138.586 153.677 140.467 153.677C142.349 153.677 143.885 155.212 143.885 157.093Z" fill="white" fill-opacity="0.4"/>
<path opacity="0.5" d="M169.843 160.51C171.731 160.51 173.261 158.98 173.261 157.093C173.261 155.206 171.731 153.677 169.843 153.677C167.956 153.677 166.426 155.206 166.426 157.093C166.426 158.98 167.956 160.51 169.843 160.51Z" fill="white" fill-opacity="0.4"/>
<path opacity="0.5" d="M199.238 160.51C201.126 160.51 202.656 158.98 202.656 157.093C202.656 155.206 201.126 153.677 199.238 153.677C197.351 153.677 195.821 155.206 195.821 157.093C195.821 158.98 197.351 160.51 199.238 160.51Z" fill="white" fill-opacity="0.4"/>
<path opacity="0.5" d="M228.615 160.51C230.502 160.51 232.032 158.98 232.032 157.093C232.032 155.206 230.502 153.677 228.615 153.677C226.727 153.677 225.197 155.206 225.197 157.093C225.197 158.98 226.727 160.51 228.615 160.51Z" fill="white" fill-opacity="0.4"/>
<path opacity="0.5" d="M258.01 160.51C259.897 160.51 261.427 158.98 261.427 157.093C261.427 155.206 259.897 153.677 258.01 153.677C256.122 153.677 254.592 155.206 254.592 157.093C254.592 158.98 256.122 160.51 258.01 160.51Z" fill="white" fill-opacity="0.4"/>
<path opacity="0.5" d="M55.7185 186.481C55.7185 188.362 54.1825 189.898 52.3009 189.898C50.4193 189.898 48.8833 188.362 48.8833 186.481C48.8833 184.6 50.4193 183.064 52.3009 183.064C54.1825 183.064 55.7185 184.581 55.7185 186.481Z" fill="white" fill-opacity="0.4"/>
<path opacity="0.5" d="M81.6962 189.898C83.5837 189.898 85.1138 188.368 85.1138 186.481C85.1138 184.594 83.5837 183.064 81.6962 183.064C79.8087 183.064 78.2786 184.594 78.2786 186.481C78.2786 188.368 79.8087 189.898 81.6962 189.898Z" fill="white" fill-opacity="0.4"/>
<path opacity="0.5" d="M111.072 189.898C112.96 189.898 114.49 188.368 114.49 186.481C114.49 184.594 112.96 183.064 111.072 183.064C109.185 183.064 107.655 184.594 107.655 186.481C107.655 188.368 109.185 189.898 111.072 189.898Z" fill="white" fill-opacity="0.4"/>
<path opacity="0.5" d="M143.885 186.481C143.885 188.362 142.349 189.898 140.467 189.898C138.586 189.898 137.05 188.362 137.05 186.481C137.05 184.6 138.586 183.064 140.467 183.064C142.349 183.064 143.885 184.581 143.885 186.481Z" fill="white" fill-opacity="0.4"/>
<path opacity="0.5" d="M169.843 189.898C171.731 189.898 173.261 188.368 173.261 186.481C173.261 184.594 171.731 183.064 169.843 183.064C167.956 183.064 166.426 184.594 166.426 186.481C166.426 188.368 167.956 189.898 169.843 189.898Z" fill="white" fill-opacity="0.4"/>
<path opacity="0.5" d="M199.238 189.898C201.126 189.898 202.656 188.368 202.656 186.481C202.656 184.594 201.126 183.064 199.238 183.064C197.351 183.064 195.821 184.594 195.821 186.481C195.821 188.368 197.351 189.898 199.238 189.898Z" fill="white" fill-opacity="0.4"/>
<path opacity="0.5" d="M228.615 189.898C230.502 189.898 232.032 188.368 232.032 186.481C232.032 184.594 230.502 183.064 228.615 183.064C226.727 183.064 225.197 184.594 225.197 186.481C225.197 188.368 226.727 189.898 228.615 189.898Z" fill="white" fill-opacity="0.4"/>
<path opacity="0.5" d="M258.01 189.898C259.897 189.898 261.427 188.368 261.427 186.481C261.427 184.594 259.897 183.064 258.01 183.064C256.122 183.064 254.592 184.594 254.592 186.481C254.592 188.368 256.122 189.898 258.01 189.898Z" fill="white" fill-opacity="0.4"/>
</g>
<g opacity="0.5">
<path opacity="0.5" d="M1222.87 553.742C1224.75 553.742 1226.28 552.213 1226.28 550.326C1226.28 548.439 1224.75 546.909 1222.87 546.909C1220.98 546.909 1219.45 548.439 1219.45 550.326C1219.45 552.213 1220.98 553.742 1222.87 553.742Z" fill="white" fill-opacity="0.4"/>
<path opacity="0.5" d="M1222.87 583.13C1224.75 583.13 1226.28 581.6 1226.28 579.713C1226.28 577.826 1224.75 576.297 1222.87 576.297C1220.98 576.297 1219.45 577.826 1219.45 579.713C1219.45 581.6 1220.98 583.13 1222.87 583.13Z" fill="white" fill-opacity="0.4"/>
<path opacity="0.5" d="M1222.87 612.499C1224.75 612.499 1226.28 610.969 1226.28 609.082C1226.28 607.195 1224.75 605.665 1222.87 605.665C1220.98 605.665 1219.45 607.195 1219.45 609.082C1219.45 610.969 1220.98 612.499 1222.87 612.499Z" fill="white" fill-opacity="0.4"/>
<path opacity="0.5" d="M1222.87 641.887C1224.75 641.887 1226.28 640.357 1226.28 638.47C1226.28 636.583 1224.75 635.053 1222.87 635.053C1220.98 635.053 1219.45 636.583 1219.45 638.47C1219.45 640.357 1220.98 641.887 1222.87 641.887Z" fill="white" fill-opacity="0.4"/>
<path opacity="0.5" d="M1222.87 671.255C1224.75 671.255 1226.28 669.725 1226.28 667.838C1226.28 665.951 1224.75 664.422 1222.87 664.422C1220.98 664.422 1219.45 665.951 1219.45 667.838C1219.45 669.725 1220.98 671.255 1222.87 671.255Z" fill="white" fill-opacity="0.4"/>
<path opacity="0.5" d="M1222.87 700.643C1224.75 700.643 1226.28 699.113 1226.28 697.226C1226.28 695.339 1224.75 693.81 1222.87 693.81C1220.98 693.81 1219.45 695.339 1219.45 697.226C1219.45 699.113 1220.98 700.643 1222.87 700.643Z" fill="white" fill-opacity="0.4"/>
<path opacity="0.5" d="M1222.87 730.012C1224.75 730.012 1226.28 728.482 1226.28 726.595C1226.28 724.708 1224.75 723.178 1222.87 723.178C1220.98 723.178 1219.45 724.708 1219.45 726.595C1219.45 728.482 1220.98 730.012 1222.87 730.012Z" fill="white" fill-opacity="0.4"/>
<path opacity="0.5" d="M1222.87 759.38C1220.99 759.38 1219.45 757.845 1219.45 755.963C1219.45 754.082 1220.99 752.547 1222.87 752.547C1224.75 752.547 1226.28 754.082 1226.28 755.963C1226.28 757.864 1224.75 759.38 1222.87 759.38Z" fill="white" fill-opacity="0.4"/>
<path opacity="0.5" d="M1193.49 553.742C1191.61 553.742 1190.07 552.207 1190.07 550.326C1190.07 548.444 1191.61 546.909 1193.49 546.909C1195.37 546.909 1196.91 548.444 1196.91 550.326C1196.89 552.207 1195.37 553.742 1193.49 553.742Z" fill="white" fill-opacity="0.4"/>
<path opacity="0.5" d="M1193.49 583.111C1191.61 583.111 1190.07 581.575 1190.07 579.694C1190.07 577.813 1191.61 576.277 1193.49 576.277C1195.37 576.277 1196.91 577.813 1196.91 579.694C1196.89 581.594 1195.37 583.111 1193.49 583.111Z" fill="white" fill-opacity="0.4"/>
<path opacity="0.5" d="M1193.49 612.499C1191.61 612.499 1190.07 610.963 1190.07 609.082C1190.07 607.201 1191.61 605.665 1193.49 605.665C1195.37 605.665 1196.91 607.201 1196.91 609.082C1196.89 610.963 1195.37 612.499 1193.49 612.499Z" fill="white" fill-opacity="0.4"/>
<path opacity="0.5" d="M1193.49 641.867C1191.61 641.867 1190.07 640.332 1190.07 638.451C1190.07 636.569 1191.61 635.034 1193.49 635.034C1195.37 635.034 1196.91 636.569 1196.91 638.451C1196.89 640.351 1195.37 641.867 1193.49 641.867Z" fill="white" fill-opacity="0.4"/>
<path opacity="0.5" d="M1193.49 671.255C1191.61 671.255 1190.07 669.72 1190.07 667.838C1190.07 665.957 1191.61 664.422 1193.49 664.422C1195.37 664.422 1196.91 665.957 1196.91 667.838C1196.89 669.72 1195.37 671.255 1193.49 671.255Z" fill="white" fill-opacity="0.4"/>
<path opacity="0.5" d="M1193.49 700.624C1191.61 700.624 1190.07 699.088 1190.07 697.207C1190.07 695.326 1191.61 693.79 1193.49 693.79C1195.37 693.79 1196.91 695.326 1196.91 697.207C1196.91 699.088 1195.37 700.624 1193.49 700.624Z" fill="white" fill-opacity="0.4"/>
<path opacity="0.5" d="M1193.49 730.012C1191.61 730.012 1190.07 728.476 1190.07 726.595C1190.07 724.714 1191.61 723.178 1193.49 723.178C1195.37 723.178 1196.91 724.714 1196.91 726.595C1196.91 728.476 1195.37 730.012 1193.49 730.012Z" fill="white" fill-opacity="0.4"/>
<path opacity="0.5" d="M1193.49 759.38C1191.61 759.38 1190.07 757.845 1190.07 755.963C1190.07 754.082 1191.61 752.547 1193.49 752.547C1195.37 752.547 1196.91 754.082 1196.91 755.963C1196.89 757.864 1195.37 759.38 1193.49 759.38Z" fill="white" fill-opacity="0.4"/>
<path opacity="0.5" d="M1164.1 553.742C1165.98 553.742 1167.51 552.213 1167.51 550.326C1167.51 548.439 1165.98 546.909 1164.1 546.909C1162.21 546.909 1160.68 548.439 1160.68 550.326C1160.68 552.213 1162.21 553.742 1164.1 553.742Z" fill="white" fill-opacity="0.4"/>
<path opacity="0.5" d="M1164.1 583.13C1165.98 583.13 1167.51 581.6 1167.51 579.713C1167.51 577.826 1165.98 576.297 1164.1 576.297C1162.21 576.297 1160.68 577.826 1160.68 579.713C1160.68 581.6 1162.21 583.13 1164.1 583.13Z" fill="white" fill-opacity="0.4"/>
<path opacity="0.5" d="M1164.1 612.499C1165.98 612.499 1167.51 610.969 1167.51 609.082C1167.51 607.195 1165.98 605.665 1164.1 605.665C1162.21 605.665 1160.68 607.195 1160.68 609.082C1160.68 610.969 1162.21 612.499 1164.1 612.499Z" fill="white" fill-opacity="0.4"/>
<path opacity="0.5" d="M1164.1 641.887C1165.98 641.887 1167.51 640.357 1167.51 638.47C1167.51 636.583 1165.98 635.053 1164.1 635.053C1162.21 635.053 1160.68 636.583 1160.68 638.47C1160.68 640.357 1162.21 641.887 1164.1 641.887Z" fill="white" fill-opacity="0.4"/>
<path opacity="0.5" d="M1164.1 671.255C1165.98 671.255 1167.51 669.725 1167.51 667.838C1167.51 665.951 1165.98 664.422 1164.1 664.422C1162.21 664.422 1160.68 665.951 1160.68 667.838C1160.68 669.725 1162.21 671.255 1164.1 671.255Z" fill="white" fill-opacity="0.4"/>
<path opacity="0.5" d="M1164.1 700.643C1165.98 700.643 1167.51 699.113 1167.51 697.226C1167.51 695.339 1165.98 693.81 1164.1 693.81C1162.21 693.81 1160.68 695.339 1160.68 697.226C1160.68 699.113 1162.21 700.643 1164.1 700.643Z" fill="white" fill-opacity="0.4"/>
<path opacity="0.5" d="M1164.1 730.012C1165.98 730.012 1167.51 728.482 1167.51 726.595C1167.51 724.708 1165.98 723.178 1164.1 723.178C1162.21 723.178 1160.68 724.708 1160.68 726.595C1160.68 728.482 1162.21 730.012 1164.1 730.012Z" fill="white" fill-opacity="0.4"/>
<path opacity="0.5" d="M1164.1 759.38C1162.21 759.38 1160.68 757.845 1160.68 755.963C1160.68 754.082 1162.21 752.547 1164.1 752.547C1165.98 752.547 1167.51 754.082 1167.51 755.963C1167.51 757.864 1165.98 759.38 1164.1 759.38Z" fill="white" fill-opacity="0.4"/>
<path opacity="0.5" d="M1134.7 553.742C1136.59 553.742 1138.12 552.213 1138.12 550.326C1138.12 548.439 1136.59 546.909 1134.7 546.909C1132.81 546.909 1131.28 548.439 1131.28 550.326C1131.28 552.213 1132.81 553.742 1134.7 553.742Z" fill="white" fill-opacity="0.4"/>
<path opacity="0.5" d="M1134.7 583.13C1136.59 583.13 1138.12 581.6 1138.12 579.713C1138.12 577.826 1136.59 576.297 1134.7 576.297C1132.81 576.297 1131.28 577.826 1131.28 579.713C1131.28 581.6 1132.81 583.13 1134.7 583.13Z" fill="white" fill-opacity="0.4"/>
<path opacity="0.5" d="M1134.7 612.499C1136.59 612.499 1138.12 610.969 1138.12 609.082C1138.12 607.195 1136.59 605.665 1134.7 605.665C1132.81 605.665 1131.28 607.195 1131.28 609.082C1131.28 610.969 1132.81 612.499 1134.7 612.499Z" fill="white" fill-opacity="0.4"/>
<path opacity="0.5" d="M1134.7 641.887C1136.59 641.887 1138.12 640.357 1138.12 638.47C1138.12 636.583 1136.59 635.053 1134.7 635.053C1132.81 635.053 1131.28 636.583 1131.28 638.47C1131.28 640.357 1132.81 641.887 1134.7 641.887Z" fill="white" fill-opacity="0.4"/>
<path opacity="0.5" d="M1134.7 671.255C1136.59 671.255 1138.12 669.725 1138.12 667.838C1138.12 665.951 1136.59 664.422 1134.7 664.422C1132.81 664.422 1131.28 665.951 1131.28 667.838C1131.28 669.725 1132.81 671.255 1134.7 671.255Z" fill="white" fill-opacity="0.4"/>
<path opacity="0.5" d="M1134.7 700.643C1136.59 700.643 1138.12 699.113 1138.12 697.226C1138.12 695.339 1136.59 693.81 1134.7 693.81C1132.81 693.81 1131.28 695.339 1131.28 697.226C1131.28 699.113 1132.81 700.643 1134.7 700.643Z" fill="white" fill-opacity="0.4"/>
<path opacity="0.5" d="M1134.7 730.012C1136.59 730.012 1138.12 728.482 1138.12 726.595C1138.12 724.708 1136.59 723.178 1134.7 723.178C1132.81 723.178 1131.28 724.708 1131.28 726.595C1131.28 728.482 1132.81 730.012 1134.7 730.012Z" fill="white" fill-opacity="0.4"/>
<path opacity="0.5" d="M1134.7 759.38C1132.82 759.38 1131.28 757.845 1131.28 755.963C1131.28 754.082 1132.82 752.547 1134.7 752.547C1136.58 752.547 1138.12 754.082 1138.12 755.963C1138.12 757.864 1136.6 759.38 1134.7 759.38Z" fill="white" fill-opacity="0.4"/>
<path opacity="0.5" d="M1105.32 553.742C1107.21 553.742 1108.74 552.213 1108.74 550.326C1108.74 548.439 1107.21 546.909 1105.32 546.909C1103.44 546.909 1101.91 548.439 1101.91 550.326C1101.91 552.213 1103.44 553.742 1105.32 553.742Z" fill="white" fill-opacity="0.4"/>
<path opacity="0.5" d="M1105.32 583.13C1107.21 583.13 1108.74 581.6 1108.74 579.713C1108.74 577.826 1107.21 576.297 1105.32 576.297C1103.44 576.297 1101.91 577.826 1101.91 579.713C1101.91 581.6 1103.44 583.13 1105.32 583.13Z" fill="white" fill-opacity="0.4"/>
<path opacity="0.5" d="M1105.32 612.499C1107.21 612.499 1108.74 610.969 1108.74 609.082C1108.74 607.195 1107.21 605.665 1105.32 605.665C1103.44 605.665 1101.91 607.195 1101.91 609.082C1101.91 610.969 1103.44 612.499 1105.32 612.499Z" fill="white" fill-opacity="0.4"/>
<path opacity="0.5" d="M1105.32 641.887C1107.21 641.887 1108.74 640.357 1108.74 638.47C1108.74 636.583 1107.21 635.053 1105.32 635.053C1103.44 635.053 1101.91 636.583 1101.91 638.47C1101.91 640.357 1103.44 641.887 1105.32 641.887Z" fill="white" fill-opacity="0.4"/>
<path opacity="0.5" d="M1105.32 671.255C1107.21 671.255 1108.74 669.725 1108.74 667.838C1108.74 665.951 1107.21 664.422 1105.32 664.422C1103.44 664.422 1101.91 665.951 1101.91 667.838C1101.91 669.725 1103.44 671.255 1105.32 671.255Z" fill="white" fill-opacity="0.4"/>
<path opacity="0.5" d="M1105.32 700.643C1107.21 700.643 1108.74 699.113 1108.74 697.226C1108.74 695.339 1107.21 693.81 1105.32 693.81C1103.44 693.81 1101.91 695.339 1101.91 697.226C1101.91 699.113 1103.44 700.643 1105.32 700.643Z" fill="white" fill-opacity="0.4"/>
<path opacity="0.5" d="M1105.32 730.012C1107.21 730.012 1108.74 728.482 1108.74 726.595C1108.74 724.708 1107.21 723.178 1105.32 723.178C1103.44 723.178 1101.91 724.708 1101.91 726.595C1101.91 728.482 1103.44 730.012 1105.32 730.012Z" fill="white" fill-opacity="0.4"/>
<path opacity="0.5" d="M1105.32 759.38C1103.44 759.38 1101.91 757.845 1101.91 755.963C1101.91 754.082 1103.44 752.547 1105.32 752.547C1107.21 752.547 1108.74 754.082 1108.74 755.963C1108.74 757.864 1107.21 759.38 1105.32 759.38Z" fill="white" fill-opacity="0.4"/>
<path opacity="0.5" d="M1075.93 553.742C1077.82 553.742 1079.35 552.213 1079.35 550.326C1079.35 548.439 1077.82 546.909 1075.93 546.909C1074.04 546.909 1072.51 548.439 1072.51 550.326C1072.51 552.213 1074.04 553.742 1075.93 553.742Z" fill="white" fill-opacity="0.4"/>
<path opacity="0.5" d="M1075.93 583.13C1077.82 583.13 1079.35 581.6 1079.35 579.713C1079.35 577.826 1077.82 576.297 1075.93 576.297C1074.04 576.297 1072.51 577.826 1072.51 579.713C1072.51 581.6 1074.04 583.13 1075.93 583.13Z" fill="white" fill-opacity="0.4"/>
<path opacity="0.5" d="M1075.93 612.499C1077.82 612.499 1079.35 610.969 1079.35 609.082C1079.35 607.195 1077.82 605.665 1075.93 605.665C1074.04 605.665 1072.51 607.195 1072.51 609.082C1072.51 610.969 1074.04 612.499 1075.93 612.499Z" fill="white" fill-opacity="0.4"/>
<path opacity="0.5" d="M1075.93 641.887C1077.82 641.887 1079.35 640.357 1079.35 638.47C1079.35 636.583 1077.82 635.053 1075.93 635.053C1074.04 635.053 1072.51 636.583 1072.51 638.47C1072.51 640.357 1074.04 641.887 1075.93 641.887Z" fill="white" fill-opacity="0.4"/>
<path opacity="0.5" d="M1075.93 671.255C1077.82 671.255 1079.35 669.725 1079.35 667.838C1079.35 665.951 1077.82 664.422 1075.93 664.422C1074.04 664.422 1072.51 665.951 1072.51 667.838C1072.51 669.725 1074.04 671.255 1075.93 671.255Z" fill="white" fill-opacity="0.4"/>
<path opacity="0.5" d="M1075.93 700.643C1077.82 700.643 1079.35 699.113 1079.35 697.226C1079.35 695.339 1077.82 693.81 1075.93 693.81C1074.04 693.81 1072.51 695.339 1072.51 697.226C1072.51 699.113 1074.04 700.643 1075.93 700.643Z" fill="white" fill-opacity="0.4"/>
<path opacity="0.5" d="M1075.93 730.012C1077.82 730.012 1079.35 728.482 1079.35 726.595C1079.35 724.708 1077.82 723.178 1075.93 723.178C1074.04 723.178 1072.51 724.708 1072.51 726.595C1072.51 728.482 1074.04 730.012 1075.93 730.012Z" fill="white" fill-opacity="0.4"/>
<path opacity="0.5" d="M1075.93 759.38C1074.05 759.38 1072.51 757.845 1072.51 755.963C1072.51 754.082 1074.05 752.547 1075.93 752.547C1077.81 752.547 1079.35 754.082 1079.35 755.963C1079.35 757.864 1077.81 759.38 1075.93 759.38Z" fill="white" fill-opacity="0.4"/>
</g>
<g opacity="0.5">
<path opacity="0.5" d="M847.719 110.449C847.719 112.33 846.182 113.866 844.301 113.866C842.419 113.866 840.883 112.33 840.883 110.449C840.883 108.568 842.419 107.032 844.301 107.032C846.182 107.032 847.719 108.568 847.719 110.449Z" fill="white" fill-opacity="0.4"/>
<path opacity="0.5" d="M877.114 110.449C877.114 112.33 875.578 113.866 873.696 113.866C871.815 113.866 870.279 112.33 870.279 110.449C870.279 108.568 871.815 107.032 873.696 107.032C875.578 107.051 877.114 108.568 877.114 110.449Z" fill="white" fill-opacity="0.4"/>
<path opacity="0.5" d="M906.49 110.449C906.49 112.33 904.954 113.866 903.072 113.866C901.19 113.866 899.655 112.33 899.655 110.449C899.655 108.568 901.19 107.032 903.072 107.032C904.954 107.032 906.49 108.568 906.49 110.449Z" fill="white" fill-opacity="0.4"/>
<path opacity="0.5" d="M847.719 139.837C847.719 141.718 846.182 143.254 844.301 143.254C842.419 143.254 840.883 141.718 840.883 139.837C840.883 137.956 842.419 136.42 844.301 136.42C846.182 136.42 847.719 137.956 847.719 139.837Z" fill="white" fill-opacity="0.4"/>
<path opacity="0.5" d="M877.114 139.837C877.114 141.718 875.578 143.254 873.696 143.254C871.815 143.254 870.279 141.718 870.279 139.837C870.279 137.956 871.815 136.42 873.696 136.42C875.578 136.42 877.114 137.956 877.114 139.837Z" fill="white" fill-opacity="0.4"/>
<path opacity="0.5" d="M906.49 139.837C906.49 141.718 904.954 143.254 903.072 143.254C901.19 143.254 899.655 141.718 899.655 139.837C899.655 137.956 901.19 136.42 903.072 136.42C904.954 136.42 906.49 137.956 906.49 139.837Z" fill="white" fill-opacity="0.4"/>
<path opacity="0.5" d="M847.719 169.205C847.719 171.087 846.182 172.622 844.301 172.622C842.419 172.622 840.883 171.087 840.883 169.205C840.883 167.324 842.419 165.789 844.301 165.789C846.182 165.789 847.719 167.324 847.719 169.205Z" fill="white" fill-opacity="0.4"/>
<path opacity="0.5" d="M877.114 169.205C877.114 171.087 875.578 172.622 873.696 172.622C871.815 172.622 870.279 171.087 870.279 169.205C870.279 167.324 871.815 165.789 873.696 165.789C875.578 165.808 877.114 167.324 877.114 169.205Z" fill="white" fill-opacity="0.4"/>
<path opacity="0.5" d="M906.49 169.205C906.49 171.087 904.954 172.622 903.072 172.622C901.19 172.622 899.655 171.087 899.655 169.205C899.655 167.324 901.19 165.789 903.072 165.789C904.954 165.789 906.49 167.324 906.49 169.205Z" fill="white" fill-opacity="0.4"/>
</g>
<g opacity="0.5">
<path opacity="0.5" d="M573.35 371.484C573.35 373.365 571.814 374.901 569.933 374.901C568.051 374.901 566.515 373.365 566.515 371.484C566.515 369.603 568.051 368.067 569.933 368.067C571.834 368.067 573.35 369.584 573.35 371.484Z" fill="white" fill-opacity="0.4"/>
<path opacity="0.5" d="M599.328 374.901C601.216 374.901 602.746 373.371 602.746 371.484C602.746 369.597 601.216 368.067 599.328 368.067C597.441 368.067 595.91 369.597 595.91 371.484C595.91 373.371 597.441 374.901 599.328 374.901Z" fill="white" fill-opacity="0.4"/>
<path opacity="0.5" d="M628.704 374.901C630.591 374.901 632.121 373.371 632.121 371.484C632.121 369.597 630.591 368.067 628.704 368.067C626.817 368.067 625.286 369.597 625.286 371.484C625.286 373.371 626.817 374.901 628.704 374.901Z" fill="white" fill-opacity="0.4"/>
<path opacity="0.5" d="M573.35 400.853C573.35 402.734 571.814 404.269 569.933 404.269C568.051 404.269 566.515 402.734 566.515 400.853C566.515 398.972 568.051 397.436 569.933 397.436C571.834 397.436 573.35 398.972 573.35 400.853Z" fill="white" fill-opacity="0.4"/>
<path opacity="0.5" d="M599.328 404.269C601.216 404.269 602.746 402.74 602.746 400.853C602.746 398.966 601.216 397.436 599.328 397.436C597.441 397.436 595.91 398.966 595.91 400.853C595.91 402.74 597.441 404.269 599.328 404.269Z" fill="white" fill-opacity="0.4"/>
<path opacity="0.5" d="M628.704 404.269C630.591 404.269 632.121 402.74 632.121 400.853C632.121 398.966 630.591 397.436 628.704 397.436C626.817 397.436 625.286 398.966 625.286 400.853C625.286 402.74 626.817 404.269 628.704 404.269Z" fill="white" fill-opacity="0.4"/>
<path opacity="0.5" d="M573.35 430.241C573.35 432.122 571.814 433.657 569.933 433.657C568.051 433.657 566.515 432.122 566.515 430.241C566.515 428.359 568.051 426.824 569.933 426.824C571.834 426.824 573.35 428.359 573.35 430.241Z" fill="white" fill-opacity="0.4"/>
<path opacity="0.5" d="M602.746 430.241C602.746 432.122 601.21 433.657 599.328 433.657C597.446 433.657 595.91 432.122 595.91 430.241C595.91 428.359 597.446 426.824 599.328 426.824C601.21 426.824 602.746 428.359 602.746 430.241Z" fill="white" fill-opacity="0.4"/>
<path opacity="0.5" d="M632.121 430.241C632.121 432.122 630.586 433.657 628.704 433.657C626.822 433.657 625.286 432.122 625.286 430.241C625.286 428.359 626.822 426.824 628.704 426.824C630.605 426.824 632.121 428.359 632.121 430.241Z" fill="white" fill-opacity="0.4"/>
</g>
<g opacity="0.5">
<path opacity="0.5" d="M1123.43 -2.76404L999.629 121.006" stroke="white" stroke-opacity="0.4" stroke-width="2.1221" stroke-miterlimit="10"/>
<path opacity="0.5" d="M1115.39 -10.8068L991.584 112.964" stroke="white" stroke-opacity="0.4" stroke-width="2.1221" stroke-miterlimit="10"/>
<path opacity="0.5" d="M1107.34 -18.8496L983.539 104.921" stroke="white" stroke-opacity="0.4" stroke-width="2.1221" stroke-miterlimit="10"/>
<path opacity="0.5" d="M1099.3 -26.8924L975.494 96.8781" stroke="white" stroke-opacity="0.4" stroke-width="2.1221" stroke-miterlimit="10"/>
<path opacity="0.5" d="M1091.25 -34.9352L967.45 88.8353" stroke="white" stroke-opacity="0.4" stroke-width="2.1221" stroke-miterlimit="10"/>
<path opacity="0.5" d="M1083.21 -42.978L959.405 80.7925" stroke="white" stroke-opacity="0.4" stroke-width="2.1221" stroke-miterlimit="10"/>
<path opacity="0.5" d="M1075.16 -51.0208L951.36 72.7497" stroke="white" stroke-opacity="0.4" stroke-width="2.1221" stroke-miterlimit="10"/>
<path opacity="0.5" d="M1067.12 -59.0635L943.315 64.707" stroke="white" stroke-opacity="0.4" stroke-width="2.1221" stroke-miterlimit="10"/>
<path opacity="0.5" d="M1059.07 -67.1063L935.271 56.6642" stroke="white" stroke-opacity="0.4" stroke-width="2.1221" stroke-miterlimit="10"/>
<path opacity="0.5" d="M1051.03 -75.149L927.226 48.6214" stroke="white" stroke-opacity="0.4" stroke-width="2.1221" stroke-miterlimit="10"/>
<path opacity="0.5" d="M1042.98 -83.1918L919.181 40.5786" stroke="white" stroke-opacity="0.4" stroke-width="2.1221" stroke-miterlimit="10"/>
<path opacity="0.5" d="M1034.94 -91.2154L911.155 32.5359" stroke="white" stroke-opacity="0.4" stroke-width="2.1221" stroke-miterlimit="10"/>
<path opacity="0.5" d="M1026.91 -99.2582L903.11 24.5123" stroke="white" stroke-opacity="0.4" stroke-width="2.1221" stroke-miterlimit="10"/>
<path opacity="0.5" d="M1018.87 -107.301L895.066 16.4695" stroke="white" stroke-opacity="0.4" stroke-width="2.1221" stroke-miterlimit="10"/>
<path opacity="0.5" d="M1010.82 -115.344L887.021 8.42671" stroke="white" stroke-opacity="0.4" stroke-width="2.1221" stroke-miterlimit="10"/>
<path opacity="0.5" d="M1002.78 -123.387L878.976 0.383923" stroke="white" stroke-opacity="0.4" stroke-width="2.1221" stroke-miterlimit="10"/>
</g>
<g opacity="0.5">
<path opacity="0.5" d="M832.339 950.91L708.538 1074.68" stroke="white" stroke-opacity="0.4" stroke-width="2.1221" stroke-miterlimit="10"/>
<path opacity="0.5" d="M824.294 942.867L700.493 1066.64" stroke="white" stroke-opacity="0.4" stroke-width="2.1221" stroke-miterlimit="10"/>
<path opacity="0.5" d="M816.25 934.824L692.448 1058.59" stroke="white" stroke-opacity="0.4" stroke-width="2.1221" stroke-miterlimit="10"/>
<path opacity="0.5" d="M808.205 926.781L684.403 1050.55" stroke="white" stroke-opacity="0.4" stroke-width="2.1221" stroke-miterlimit="10"/>
<path opacity="0.5" d="M800.16 918.739L676.359 1042.51" stroke="white" stroke-opacity="0.4" stroke-width="2.1221" stroke-miterlimit="10"/>
<path opacity="0.5" d="M792.115 910.696L668.314 1034.47" stroke="white" stroke-opacity="0.4" stroke-width="2.1221" stroke-miterlimit="10"/>
<path opacity="0.5" d="M784.071 902.653L660.269 1026.42" stroke="white" stroke-opacity="0.4" stroke-width="2.1221" stroke-miterlimit="10"/>
<path opacity="0.5" d="M776.026 894.61L652.224 1018.38" stroke="white" stroke-opacity="0.4" stroke-width="2.1221" stroke-miterlimit="10"/>
<path opacity="0.5" d="M767.981 886.567L644.179 1010.34" stroke="white" stroke-opacity="0.4" stroke-width="2.1221" stroke-miterlimit="10"/>
<path opacity="0.5" d="M759.936 878.525L636.135 1002.29" stroke="white" stroke-opacity="0.4" stroke-width="2.1221" stroke-miterlimit="10"/>
<path opacity="0.5" d="M751.891 870.482L628.09 994.252" stroke="white" stroke-opacity="0.4" stroke-width="2.1221" stroke-miterlimit="10"/>
<path opacity="0.5" d="M743.846 862.439L620.064 986.21" stroke="white" stroke-opacity="0.4" stroke-width="2.1221" stroke-miterlimit="10"/>
<path opacity="0.5" d="M735.821 854.415L612.019 978.167" stroke="white" stroke-opacity="0.4" stroke-width="2.1221" stroke-miterlimit="10"/>
<path opacity="0.5" d="M727.776 846.373L603.975 970.124" stroke="white" stroke-opacity="0.4" stroke-width="2.1221" stroke-miterlimit="10"/>
<path opacity="0.5" d="M719.731 838.33L595.93 962.1" stroke="white" stroke-opacity="0.4" stroke-width="2.1221" stroke-miterlimit="10"/>
</g>
<g opacity="0.8">
<path opacity="0.8" d="M754.505 151.421C860.197 45.7555 860.197 -125.562 754.505 -231.227C648.814 -336.892 477.453 -336.892 371.762 -231.227C266.07 -125.562 266.07 45.7555 371.762 151.421C477.453 257.086 648.814 257.086 754.505 151.421Z" stroke="white" stroke-opacity="0.4" stroke-width="0.5" stroke-miterlimit="10"/>
<path opacity="0.8" d="M744.866 141.784C845.234 41.441 845.234 -121.247 744.866 -221.59C644.498 -321.933 481.769 -321.933 381.401 -221.59C281.033 -121.247 281.033 41.441 381.401 141.784C481.769 242.127 644.498 242.127 744.866 141.784Z" stroke="white" stroke-opacity="0.4" stroke-width="0.6562" stroke-miterlimit="10"/>
<path opacity="0.8" d="M563.136 203.392C697.54 203.392 806.496 94.4634 806.496 -39.9068C806.496 -174.277 697.54 -283.206 563.136 -283.206C428.732 -283.206 319.776 -174.277 319.776 -39.9068C319.776 94.4634 428.732 203.392 563.136 203.392Z" stroke="white" stroke-opacity="0.4" stroke-width="0.8125" stroke-miterlimit="10"/>
<path opacity="0.8" d="M563.136 189.763C690.011 189.763 792.864 86.9366 792.864 -39.9068C792.864 -166.75 690.011 -269.577 563.136 -269.577C436.261 -269.577 333.408 -166.75 333.408 -39.9068C333.408 86.9366 436.261 189.763 563.136 189.763Z" stroke="white" stroke-opacity="0.4" stroke-width="0.9688" stroke-miterlimit="10"/>
<path opacity="0.8" d="M715.935 112.86C800.325 28.4914 800.325 -108.297 715.935 -192.666C631.545 -277.035 494.722 -277.035 410.332 -192.666C325.942 -108.297 325.942 28.4914 410.332 112.86C494.722 197.229 631.545 197.229 715.935 112.86Z" stroke="white" stroke-opacity="0.4" stroke-width="1.125" stroke-miterlimit="10"/>
<path opacity="0.8" d="M706.296 103.223C785.362 24.1769 785.362 -103.983 706.296 -183.029C627.229 -262.076 499.037 -262.076 419.971 -183.029C340.905 -103.983 340.905 24.1769 419.971 103.223C499.037 182.27 627.229 182.27 706.296 103.223Z" stroke="white" stroke-opacity="0.4" stroke-width="1.2812" stroke-miterlimit="10"/>
<path opacity="0.8" d="M696.657 93.5866C770.399 19.8623 770.399 -99.6683 696.657 -173.393C622.914 -247.117 503.353 -247.117 429.61 -173.392C355.868 -99.6682 355.868 19.8623 429.611 93.5865C503.353 167.311 622.914 167.311 696.657 93.5866Z" stroke="white" stroke-opacity="0.4" stroke-width="1.4375" stroke-miterlimit="10"/>
<path opacity="0.8" d="M687.018 83.9498C755.437 15.5478 755.437 -95.3537 687.018 -163.756C618.598 -232.158 507.669 -232.158 439.25 -163.756C370.83 -95.3537 370.83 15.5478 439.25 83.9498C507.669 152.352 618.598 152.352 687.018 83.9498Z" stroke="white" stroke-opacity="0.4" stroke-width="1.5938" stroke-miterlimit="10"/>
<path opacity="0.8" d="M722.671 -14.1346C736.886 -102.202 676.999 -185.115 588.909 -199.326C500.82 -213.537 417.886 -153.664 403.672 -65.5972C389.457 22.47 449.344 105.383 537.434 119.594C625.523 133.805 708.457 73.9326 722.671 -14.1346Z" stroke="white" stroke-opacity="0.4" stroke-width="1.75" stroke-miterlimit="10"/>
<path opacity="0.8" d="M563.136 107.992C644.839 107.992 711.072 41.7755 711.072 -39.9068C711.072 -121.589 644.839 -187.806 563.136 -187.806C481.433 -187.806 415.2 -121.589 415.2 -39.9068C415.2 41.7755 481.433 107.992 563.136 107.992Z" stroke="white" stroke-opacity="0.4" stroke-width="1.9062" stroke-miterlimit="10"/>
<path opacity="0.8" d="M658.1 55.0395C710.548 2.6042 710.548 -82.4102 658.1 -134.845C605.651 -187.281 520.615 -187.281 468.167 -134.845C415.719 -82.4102 415.719 2.60418 468.167 55.0395C520.616 107.475 605.651 107.475 658.1 55.0395Z" stroke="white" stroke-opacity="0.4" stroke-width="2.0625" stroke-miterlimit="10"/>
<path opacity="0.8" d="M648.447 45.3892C695.564 -1.71636 695.565 -78.0896 648.447 -125.195C601.33 -172.301 524.937 -172.301 477.82 -125.195C430.703 -78.0895 430.703 -1.71636 477.82 45.3892C524.937 92.4947 601.33 92.4947 648.447 45.3892Z" stroke="white" stroke-opacity="0.4" stroke-width="2.2188" stroke-miterlimit="10"/>
<path opacity="0.8" d="M638.808 35.7524C680.602 -6.03095 680.602 -73.7751 638.808 -115.558C597.014 -157.342 529.253 -157.342 487.459 -115.558C445.665 -73.7751 445.665 -6.03094 487.459 35.7524C529.253 77.5357 597.014 77.5357 638.808 35.7524Z" stroke="white" stroke-opacity="0.4" stroke-width="2.375" stroke-miterlimit="10"/>
<path opacity="0.8" d="M629.169 26.1156C665.639 -10.3454 665.639 -69.4605 629.169 -105.922C592.698 -142.383 533.568 -142.383 497.098 -105.922C460.628 -69.4605 460.628 -10.3455 497.098 26.1156C533.568 62.5767 592.698 62.5767 629.169 26.1156Z" stroke="white" stroke-opacity="0.4" stroke-width="2.5312" stroke-miterlimit="10"/>
<path opacity="0.8" d="M642.318 -30.5712C647.48 -74.3047 616.203 -113.942 572.459 -119.103C528.714 -124.264 489.067 -92.995 483.905 -49.2615C478.742 -5.52799 510.019 34.109 553.764 39.2701C597.508 44.4313 637.155 13.1623 642.318 -30.5712Z" stroke="white" stroke-opacity="0.4" stroke-width="2.6875" stroke-miterlimit="10"/>
<path opacity="0.8" d="M563.136 26.2014C599.656 26.2014 629.261 -3.39616 629.261 -39.9067C629.261 -76.4172 599.656 -106.015 563.136 -106.015C526.616 -106.015 497.011 -76.4172 497.011 -39.9067C497.011 -3.39616 526.616 26.2014 563.136 26.2014Z" stroke="white" stroke-opacity="0.4" stroke-width="2.8438" stroke-miterlimit="10"/>
<path opacity="0.8" d="M615.502 -35.6874C617.804 -64.5783 596.243 -89.8647 567.345 -92.166C538.447 -94.4673 513.154 -72.9121 510.852 -44.0211C508.551 -15.1302 530.111 10.1561 559.009 12.4574C587.908 14.7587 613.2 -6.79644 615.502 -35.6874Z" stroke="white" stroke-opacity="0.4" stroke-width="3" stroke-miterlimit="10"/>
</g>
<g opacity="0.79">
<path opacity="0.79" d="M989.111 573.469C1058.26 504.333 1058.26 392.24 989.111 323.104C919.957 253.967 807.836 253.967 738.682 323.104C669.528 392.24 669.528 504.333 738.682 573.469C807.836 642.606 919.957 642.606 989.111 573.469Z" stroke="white" stroke-opacity="0.4" stroke-width="0.5" stroke-miterlimit="10"/>
<path opacity="0.79" d="M980.286 564.647C1044.57 500.383 1044.57 396.19 980.286 331.926C916.006 267.662 811.787 267.662 747.507 331.926C683.226 396.19 683.226 500.383 747.507 564.647C811.787 628.911 916.006 628.911 980.286 564.647Z" stroke="white" stroke-opacity="0.4" stroke-width="0.7273" stroke-miterlimit="10"/>
<path opacity="0.79" d="M863.904 600.367C947.919 600.367 1016.03 532.277 1016.03 448.284C1016.03 364.291 947.919 296.201 863.904 296.201C779.89 296.201 711.782 364.291 711.782 448.284C711.782 532.277 779.89 600.367 863.904 600.367Z" stroke="white" stroke-opacity="0.4" stroke-width="0.9545" stroke-miterlimit="10"/>
<path opacity="0.79" d="M863.904 587.91C941.037 587.91 1003.56 525.397 1003.56 448.284C1003.56 371.171 941.037 308.658 863.904 308.658C786.772 308.658 724.243 371.171 724.243 448.284C724.243 525.397 786.772 587.91 863.904 587.91Z" stroke="white" stroke-opacity="0.4" stroke-width="1.1818" stroke-miterlimit="10"/>
<path opacity="0.79" d="M863.904 575.433C934.144 575.433 991.085 518.506 991.085 448.284C991.085 378.062 934.144 321.135 863.904 321.135C793.664 321.135 736.723 378.062 736.723 448.284C736.723 518.506 793.664 575.433 863.904 575.433Z" stroke="white" stroke-opacity="0.4" stroke-width="1.4091" stroke-miterlimit="10"/>
<path opacity="0.79" d="M863.904 562.956C927.252 562.956 978.605 511.616 978.605 448.284C978.605 384.952 927.252 333.612 863.904 333.612C800.557 333.612 749.203 384.952 749.203 448.284C749.203 511.616 800.557 562.956 863.904 562.956Z" stroke="white" stroke-opacity="0.4" stroke-width="1.6364" stroke-miterlimit="10"/>
<path opacity="0.79" d="M863.904 550.479C920.359 550.479 966.125 504.725 966.125 448.284C966.125 391.843 920.359 346.089 863.904 346.089C807.449 346.089 761.683 391.843 761.683 448.284C761.683 504.725 807.449 550.479 863.904 550.479Z" stroke="white" stroke-opacity="0.4" stroke-width="1.8636" stroke-miterlimit="10"/>
<path opacity="0.79" d="M863.904 538.002C913.467 538.002 953.645 497.834 953.645 448.284C953.645 398.734 913.467 358.566 863.904 358.566C814.342 358.566 774.164 398.734 774.164 448.284C774.164 497.834 814.342 538.002 863.904 538.002Z" stroke="white" stroke-opacity="0.4" stroke-width="2.0909" stroke-miterlimit="10"/>
<path opacity="0.79" d="M863.904 525.525C906.574 525.525 941.165 490.943 941.165 448.284C941.165 405.625 906.574 371.043 863.904 371.043C821.234 371.043 786.643 405.625 786.643 448.284C786.643 490.943 821.234 525.525 863.904 525.525Z" stroke="white" stroke-opacity="0.4" stroke-width="2.3182" stroke-miterlimit="10"/>
<path opacity="0.79" d="M863.904 513.049C899.682 513.049 928.685 484.052 928.685 448.284C928.685 412.516 899.682 383.52 863.904 383.52C828.127 383.52 799.124 412.516 799.124 448.284C799.124 484.052 828.127 513.049 863.904 513.049Z" stroke="white" stroke-opacity="0.4" stroke-width="2.5454" stroke-miterlimit="10"/>
<path opacity="0.79" d="M863.904 500.572C892.789 500.572 916.205 477.162 916.205 448.284C916.205 419.406 892.789 395.996 863.904 395.996C835.019 395.996 811.603 419.406 811.603 448.284C811.603 477.162 835.019 500.572 863.904 500.572Z" stroke="white" stroke-opacity="0.4" stroke-width="2.7727" stroke-miterlimit="10"/>
<path opacity="0.79" d="M863.904 488.095C885.897 488.095 903.725 470.271 903.725 448.284C903.725 426.297 885.897 408.473 863.904 408.473C841.912 408.473 824.083 426.297 824.083 448.284C824.083 470.271 841.912 488.095 863.904 488.095Z" stroke="white" stroke-opacity="0.4" stroke-width="3" stroke-miterlimit="10"/>
</g>
<g opacity="0.89">
<g opacity="0.89">
<path opacity="0.89" d="M347.117 525.199C432.902 525.199 502.445 455.674 502.445 369.91C502.445 284.146 432.902 214.621 347.117 214.621C261.332 214.621 191.789 284.146 191.789 369.91C191.789 455.674 261.332 525.199 347.117 525.199Z" stroke="white" stroke-opacity="0.4" stroke-width="0.8127" stroke-linecap="round" stroke-linejoin="round"/>
</g>
<g opacity="0.89">
<path opacity="0.89" d="M347.117 513.874C426.646 513.874 491.117 449.419 491.117 369.91C491.117 290.401 426.646 225.946 347.117 225.946C267.588 225.946 203.117 290.401 203.117 369.91C203.117 449.419 267.588 513.874 347.117 513.874Z" stroke="white" stroke-opacity="0.4" stroke-width="0.9493" stroke-linecap="round" stroke-linejoin="round"/>
</g>
<g opacity="0.89">
<path opacity="0.89" d="M347.117 502.549C420.39 502.549 479.789 443.164 479.789 369.91C479.789 296.656 420.39 237.271 347.117 237.271C273.844 237.271 214.445 296.656 214.445 369.91C214.445 443.164 273.844 502.549 347.117 502.549Z" stroke="white" stroke-opacity="0.4" stroke-width="1.0859" stroke-linecap="round" stroke-linejoin="round"/>
</g>
<g opacity="0.89">
<path opacity="0.89" d="M347.117 491.224C414.133 491.224 468.461 436.91 468.461 369.91C468.461 302.911 414.133 248.597 347.117 248.597C280.101 248.597 225.773 302.911 225.773 369.91C225.773 436.91 280.101 491.224 347.117 491.224Z" stroke="white" stroke-opacity="0.4" stroke-width="1.2225" stroke-linecap="round" stroke-linejoin="round"/>
</g>
<g opacity="0.89">
<path opacity="0.89" d="M347.117 479.898C407.877 479.898 457.133 430.655 457.133 369.91C457.133 309.165 407.877 259.922 347.117 259.922C286.357 259.922 237.101 309.165 237.101 369.91C237.101 430.655 286.357 479.898 347.117 479.898Z" stroke="white" stroke-opacity="0.4" stroke-width="1.3591" stroke-linecap="round" stroke-linejoin="round"/>
</g>
<g opacity="0.89">
<path opacity="0.89" d="M347.117 468.573C401.621 468.573 445.805 424.4 445.805 369.91C445.805 315.42 401.621 271.247 347.117 271.247C292.613 271.247 248.429 315.42 248.429 369.91C248.429 424.4 292.613 468.573 347.117 468.573Z" stroke="white" stroke-opacity="0.4" stroke-width="1.4956" stroke-linecap="round" stroke-linejoin="round"/>
</g>
<g opacity="0.89">
<path opacity="0.89" d="M347.117 457.248C395.365 457.248 434.477 418.146 434.477 369.91C434.477 321.675 395.365 282.572 347.117 282.572C298.869 282.572 259.757 321.675 259.757 369.91C259.757 418.146 298.869 457.248 347.117 457.248Z" stroke="white" stroke-opacity="0.4" stroke-width="1.6322" stroke-linecap="round" stroke-linejoin="round"/>
</g>
<g opacity="0.89">
<path opacity="0.89" d="M347.117 445.923C389.108 445.923 423.149 411.891 423.149 369.91C423.149 327.929 389.108 293.897 347.117 293.897C305.126 293.897 271.085 327.929 271.085 369.91C271.085 411.891 305.126 445.923 347.117 445.923Z" stroke="white" stroke-opacity="0.4" stroke-width="1.7688" stroke-linecap="round" stroke-linejoin="round"/>
</g>
<g opacity="0.89">
<path opacity="0.89" d="M347.117 434.617C382.863 434.617 411.84 405.647 411.84 369.91C411.84 334.173 382.863 305.203 347.117 305.203C311.371 305.203 282.394 334.173 282.394 369.91C282.394 405.647 311.371 434.617 347.117 434.617Z" stroke="white" stroke-opacity="0.4" stroke-width="1.9054" stroke-linecap="round" stroke-linejoin="round"/>
</g>
<g opacity="0.89">
<path opacity="0.89" d="M347.117 423.292C376.607 423.292 400.512 399.392 400.512 369.91C400.512 340.428 376.607 316.528 347.117 316.528C317.628 316.528 293.722 340.428 293.722 369.91C293.722 399.392 317.628 423.292 347.117 423.292Z" stroke="white" stroke-opacity="0.4" stroke-width="2.042" stroke-linecap="round" stroke-linejoin="round"/>
</g>
<g opacity="0.89">
<path opacity="0.89" d="M347.117 411.967C370.35 411.967 389.184 393.137 389.184 369.91C389.184 346.683 370.35 327.853 347.117 327.853C323.884 327.853 305.05 346.683 305.05 369.91C305.05 393.137 323.884 411.967 347.117 411.967Z" stroke="white" stroke-opacity="0.4" stroke-width="2.1786" stroke-linecap="round" stroke-linejoin="round"/>
</g>
<g opacity="0.89">
<path opacity="0.89" d="M347.117 400.642C364.094 400.642 377.856 386.883 377.856 369.91C377.856 352.938 364.094 339.179 347.117 339.179C330.14 339.179 316.378 352.938 316.378 369.91C316.378 386.883 330.14 400.642 347.117 400.642Z" stroke="white" stroke-opacity="0.4" stroke-width="2.3152" stroke-linecap="round" stroke-linejoin="round"/>
</g>
</g>
<g opacity="0.81">
<g opacity="0.81">
<path opacity="0.81" d="M1644.15 200.721C1756.55 88.3471 1756.55 -93.8474 1644.14 -206.222C1531.74 -318.596 1349.5 -318.596 1237.1 -206.222C1124.7 -93.8475 1124.7 88.3471 1237.1 200.721C1349.5 313.095 1531.74 313.095 1644.15 200.721Z" stroke="white" stroke-opacity="0.4" stroke-width="1.0531" stroke-linecap="round" stroke-linejoin="round"/>
</g>
<g opacity="0.81">
<path opacity="0.81" d="M1440.63 273.992C1593.52 273.992 1717.46 150.084 1717.46 -2.7641C1717.46 -155.612 1593.52 -279.52 1440.63 -279.52C1287.75 -279.52 1163.81 -155.612 1163.81 -2.7641C1163.81 150.084 1287.75 273.992 1440.63 273.992Z" stroke="white" stroke-opacity="0.4" stroke-width="1.1458" stroke-linecap="round" stroke-linejoin="round"/>
</g>
<g opacity="0.81">
<path opacity="0.81" d="M1628.6 185.18C1732.42 81.389 1732.42 -86.8896 1628.6 -190.681C1524.78 -294.472 1356.46 -294.472 1252.64 -190.681C1148.83 -86.8896 1148.83 81.3891 1252.64 185.18C1356.46 288.971 1524.78 288.971 1628.6 185.18Z" stroke="white" stroke-opacity="0.4" stroke-width="1.2385" stroke-linecap="round" stroke-linejoin="round"/>
</g>
<g opacity="0.81">
<path opacity="0.81" d="M1440.63 252.013C1581.38 252.013 1695.48 137.946 1695.48 -2.76405C1695.48 -143.474 1581.38 -257.542 1440.63 -257.542C1299.89 -257.542 1185.79 -143.474 1185.79 -2.76405C1185.79 137.946 1299.89 252.013 1440.63 252.013Z" stroke="white" stroke-opacity="0.4" stroke-width="1.3312" stroke-linecap="round" stroke-linejoin="round"/>
</g>
<g opacity="0.81">
<path opacity="0.81" d="M1440.63 241.034C1575.31 241.034 1684.49 131.882 1684.49 -2.7641C1684.49 -137.41 1575.31 -246.562 1440.63 -246.562C1305.95 -246.562 1196.77 -137.41 1196.77 -2.7641C1196.77 131.882 1305.95 241.034 1440.63 241.034Z" stroke="white" stroke-opacity="0.4" stroke-width="1.4239" stroke-linecap="round" stroke-linejoin="round"/>
</g>
<g opacity="0.81">
<path opacity="0.81" d="M1440.63 230.035C1569.24 230.035 1673.49 125.807 1673.49 -2.76407C1673.49 -131.335 1569.24 -235.563 1440.63 -235.563C1312.03 -235.563 1207.78 -131.335 1207.78 -2.76407C1207.78 125.807 1312.03 230.035 1440.63 230.035Z" stroke="white" stroke-opacity="0.4" stroke-width="1.5166" stroke-linecap="round" stroke-linejoin="round"/>
</g>
<g opacity="0.81">
<path opacity="0.81" d="M1440.63 219.036C1563.16 219.036 1662.49 119.733 1662.49 -2.76408C1662.49 -125.261 1563.16 -224.564 1440.63 -224.564C1318.11 -224.564 1218.78 -125.261 1218.78 -2.76408C1218.78 119.733 1318.11 219.036 1440.63 219.036Z" stroke="white" stroke-opacity="0.4" stroke-width="1.6093" stroke-linecap="round" stroke-linejoin="round"/>
</g>
<g opacity="0.81">
<path opacity="0.81" d="M1440.63 208.057C1557.1 208.057 1651.51 113.669 1651.51 -2.76408C1651.51 -119.197 1557.1 -213.585 1440.63 -213.585C1324.17 -213.585 1229.76 -119.197 1229.76 -2.76408C1229.76 113.669 1324.17 208.057 1440.63 208.057Z" stroke="white" stroke-opacity="0.4" stroke-width="1.702" stroke-linecap="round" stroke-linejoin="round"/>
</g>
<g opacity="0.81">
<path opacity="0.81" d="M1440.63 197.058C1551.02 197.058 1640.51 107.594 1640.51 -2.76408C1640.51 -113.123 1551.02 -202.586 1440.63 -202.586C1330.25 -202.586 1240.76 -113.123 1240.76 -2.76408C1240.76 107.594 1330.25 197.058 1440.63 197.058Z" stroke="white" stroke-opacity="0.4" stroke-width="1.7948" stroke-linecap="round" stroke-linejoin="round"/>
</g>
<g opacity="0.81">
<path opacity="0.81" d="M1440.63 186.078C1544.95 186.078 1629.52 101.531 1629.52 -2.76411C1629.52 -107.059 1544.95 -191.606 1440.63 -191.606C1336.31 -191.606 1251.74 -107.059 1251.74 -2.76411C1251.74 101.531 1336.31 186.078 1440.63 186.078Z" stroke="white" stroke-opacity="0.4" stroke-width="1.8875" stroke-linecap="round" stroke-linejoin="round"/>
</g>
<g opacity="0.81">
<path opacity="0.81" d="M1440.63 175.079C1538.88 175.079 1618.52 95.4561 1618.52 -2.76405C1618.52 -100.984 1538.88 -180.607 1440.63 -180.607C1342.39 -180.607 1262.75 -100.984 1262.75 -2.76405C1262.75 95.4561 1342.39 175.079 1440.63 175.079Z" stroke="white" stroke-opacity="0.4" stroke-width="1.9802" stroke-linecap="round" stroke-linejoin="round"/>
</g>
<g opacity="0.81">
<path opacity="0.81" d="M1440.63 164.08C1532.8 164.08 1607.52 89.3816 1607.52 -2.76408C1607.52 -94.9097 1532.8 -169.609 1440.63 -169.609C1348.46 -169.609 1273.75 -94.9097 1273.75 -2.76408C1273.75 89.3816 1348.46 164.08 1440.63 164.08Z" stroke="white" stroke-opacity="0.4" stroke-width="2.0729" stroke-linecap="round" stroke-linejoin="round"/>
</g>
<g opacity="0.81">
<path opacity="0.81" d="M1446.24 153.103C1532.29 150.039 1599.56 77.8134 1596.5 -8.21667C1593.43 -94.2468 1521.19 -161.504 1435.13 -158.439C1349.08 -155.375 1281.81 -83.1492 1284.87 2.88091C1287.94 88.911 1360.18 156.168 1446.24 153.103Z" stroke="white" stroke-opacity="0.4" stroke-width="2.1656" stroke-linecap="round" stroke-linejoin="round"/>
</g>
<g opacity="0.81">
<path opacity="0.81" d="M1440.63 142.102C1520.66 142.102 1585.54 77.2432 1585.54 -2.76404C1585.54 -82.7713 1520.66 -147.63 1440.63 -147.63C1360.61 -147.63 1295.73 -82.7713 1295.73 -2.76404C1295.73 77.2432 1360.61 142.102 1440.63 142.102Z" stroke="white" stroke-opacity="0.4" stroke-width="2.2583" stroke-linecap="round" stroke-linejoin="round"/>
</g>
<g opacity="0.81">
<path opacity="0.81" d="M1445.45 131.138C1519.37 128.506 1577.16 66.4648 1574.52 -7.43422C1571.89 -81.3332 1509.83 -139.106 1435.92 -136.474C1362 -133.841 1304.21 -71.8005 1306.85 2.09848C1309.48 75.9975 1371.53 133.771 1445.45 131.138Z" stroke="white" stroke-opacity="0.4" stroke-width="2.351" stroke-linecap="round" stroke-linejoin="round"/>
</g>
<g opacity="0.81">
<path opacity="0.81" d="M1440.63 120.124C1508.52 120.124 1563.55 65.1049 1563.55 -2.76401C1563.55 -70.6329 1508.52 -125.651 1440.63 -125.651C1372.75 -125.651 1317.72 -70.6329 1317.72 -2.76401C1317.72 65.1049 1372.75 120.124 1440.63 120.124Z" stroke="white" stroke-opacity="0.4" stroke-width="2.4437" stroke-linecap="round" stroke-linejoin="round"/>
</g>
<g opacity="0.81">
<path opacity="0.81" d="M1444.67 109.154C1506.44 106.954 1554.73 55.1062 1552.53 -6.65111C1550.33 -68.4084 1498.47 -116.689 1436.7 -114.489C1374.93 -112.29 1326.63 -60.442 1328.84 1.31537C1331.04 63.0727 1382.9 111.354 1444.67 109.154Z" stroke="white" stroke-opacity="0.4" stroke-width="2.5364" stroke-linecap="round" stroke-linejoin="round"/>
</g>
<g opacity="0.81">
<path opacity="0.81" d="M1440.63 98.145C1496.38 98.145 1541.57 52.9664 1541.57 -2.76408C1541.57 -58.4946 1496.38 -103.673 1440.63 -103.673C1384.89 -103.673 1339.7 -58.4946 1339.7 -2.76408C1339.7 52.9664 1384.89 98.145 1440.63 98.145Z" stroke="white" stroke-opacity="0.4" stroke-width="2.6292" stroke-linecap="round" stroke-linejoin="round"/>
</g>
<g opacity="0.81">
<path opacity="0.81" d="M1443.89 87.1884C1493.53 85.4206 1532.33 43.7576 1530.56 -5.86867C1528.8 -55.4949 1487.12 -94.2919 1437.48 -92.5241C1387.84 -90.7564 1349.04 -49.0933 1350.81 0.532935C1352.57 50.1592 1394.25 88.9561 1443.89 87.1884Z" stroke="white" stroke-opacity="0.4" stroke-width="2.7219" stroke-linecap="round" stroke-linejoin="round"/>
</g>
<g opacity="0.81">
<path opacity="0.81" d="M1440.63 76.1664C1484.24 76.1664 1519.58 40.828 1519.58 -2.76411C1519.58 -46.3562 1484.24 -81.6946 1440.63 -81.6946C1397.03 -81.6946 1361.68 -46.3562 1361.68 -2.76411C1361.68 40.828 1397.03 76.1664 1440.63 76.1664Z" stroke="white" stroke-opacity="0.4" stroke-width="2.8146" stroke-linecap="round" stroke-linejoin="round"/>
</g>
<g opacity="0.81">
<path opacity="0.81" d="M1443.1 65.2231C1480.61 63.8874 1509.93 32.4089 1508.59 -5.08626C1507.26 -42.5814 1475.77 -71.8945 1438.27 -70.5588C1400.76 -69.2232 1371.44 -37.7447 1372.78 -0.249526C1374.11 37.2456 1405.6 66.5587 1443.1 65.2231Z" stroke="white" stroke-opacity="0.4" stroke-width="2.9073" stroke-linecap="round" stroke-linejoin="round"/>
</g>
<g opacity="0.81">
<path opacity="0.81" d="M1440.63 54.1688C1472.08 54.1688 1497.58 28.6791 1497.58 -2.76408C1497.58 -34.2072 1472.08 -59.697 1440.63 -59.697C1409.18 -59.697 1383.69 -34.2072 1383.69 -2.76408C1383.69 28.6791 1409.18 54.1688 1440.63 54.1688Z" stroke="white" stroke-opacity="0.4" stroke-width="3" stroke-linecap="round" stroke-linejoin="round"/>
</g>
</g>
<g opacity="0.81">
<g opacity="0.81">
<path opacity="0.81" d="M1265.43 653.212L629.779 1288.71" stroke="white" stroke-opacity="0.4" stroke-width="2" stroke-miterlimit="10"/>
<path opacity="0.81" d="M1280.64 653.212L644.986 1288.71" stroke="white" stroke-opacity="0.4" stroke-width="2" stroke-miterlimit="10"/>
<path opacity="0.81" d="M1295.87 653.212L660.192 1288.71" stroke="white" stroke-opacity="0.4" stroke-width="2" stroke-miterlimit="10"/>
<path opacity="0.81" d="M1311.07 653.212L675.418 1288.71" stroke="white" stroke-opacity="0.4" stroke-width="2" stroke-miterlimit="10"/>
<path opacity="0.81" d="M1326.28 653.212L690.624 1288.71" stroke="white" stroke-opacity="0.4" stroke-width="2" stroke-miterlimit="10"/>
<path opacity="0.81" d="M1341.5 653.212L705.831 1288.71" stroke="white" stroke-opacity="0.4" stroke-width="2" stroke-miterlimit="10"/>
<path opacity="0.81" d="M1356.71 653.212L721.056 1288.71" stroke="white" stroke-opacity="0.4" stroke-width="2" stroke-miterlimit="10"/>
<path opacity="0.81" d="M1371.92 653.212L736.262 1288.71" stroke="white" stroke-opacity="0.4" stroke-width="2" stroke-miterlimit="10"/>
<path opacity="0.81" d="M1387.14 653.212L751.488 1288.71" stroke="white" stroke-opacity="0.4" stroke-width="2" stroke-miterlimit="10"/>
<path opacity="0.81" d="M1402.35 653.212L766.695 1288.71" stroke="white" stroke-opacity="0.4" stroke-width="2" stroke-miterlimit="10"/>
<path opacity="0.81" d="M1417.57 653.212L781.901 1288.71" stroke="white" stroke-opacity="0.4" stroke-width="2" stroke-miterlimit="10"/>
<path opacity="0.81" d="M1432.78 653.212L797.126 1288.71" stroke="white" stroke-opacity="0.4" stroke-width="2" stroke-miterlimit="10"/>
<path opacity="0.81" d="M1447.99 653.212L812.333 1288.71" stroke="white" stroke-opacity="0.4" stroke-width="2" stroke-miterlimit="10"/>
<path opacity="0.81" d="M1463.21 653.212L827.539 1288.71" stroke="white" stroke-opacity="0.4" stroke-width="2" stroke-miterlimit="10"/>
<path opacity="0.81" d="M1478.42 653.212L842.765 1288.71" stroke="white" stroke-opacity="0.4" stroke-width="2" stroke-miterlimit="10"/>
<path opacity="0.81" d="M1493.63 653.212L857.971 1288.71" stroke="white" stroke-opacity="0.4" stroke-width="2" stroke-miterlimit="10"/>
<path opacity="0.81" d="M1508.85 653.212L873.178 1288.71" stroke="white" stroke-opacity="0.4" stroke-width="2" stroke-miterlimit="10"/>
<path opacity="0.81" d="M1524.06 653.212L888.403 1288.71" stroke="white" stroke-opacity="0.4" stroke-width="2" stroke-miterlimit="10"/>
<path opacity="0.81" d="M1539.26 653.212L903.61 1288.71" stroke="white" stroke-opacity="0.4" stroke-width="2" stroke-miterlimit="10"/>
<path opacity="0.81" d="M1554.49 653.212L918.835 1288.71" stroke="white" stroke-opacity="0.4" stroke-width="2" stroke-miterlimit="10"/>
<path opacity="0.81" d="M1569.7 653.212L934.042 1288.71" stroke="white" stroke-opacity="0.4" stroke-width="2" stroke-miterlimit="10"/>
<path opacity="0.81" d="M1584.92 653.212L949.248 1288.71" stroke="white" stroke-opacity="0.4" stroke-width="2" stroke-miterlimit="10"/>
<path opacity="0.81" d="M1600.13 653.212L964.474 1288.71" stroke="white" stroke-opacity="0.4" stroke-width="2" stroke-miterlimit="10"/>
<path opacity="0.81" d="M1615.33 653.212L979.68 1288.71" stroke="white" stroke-opacity="0.4" stroke-width="2" stroke-miterlimit="10"/>
<path opacity="0.81" d="M1630.56 653.212L994.886 1288.71" stroke="white" stroke-opacity="0.4" stroke-width="2" stroke-miterlimit="10"/>
<path opacity="0.81" d="M1645.77 653.212L1010.11 1288.71" stroke="white" stroke-opacity="0.4" stroke-width="2" stroke-miterlimit="10"/>
<path opacity="0.81" d="M1660.97 653.212L1025.32 1288.71" stroke="white" stroke-opacity="0.4" stroke-width="2" stroke-miterlimit="10"/>
<path opacity="0.81" d="M1676.2 653.212L1040.52 1288.71" stroke="white" stroke-opacity="0.4" stroke-width="2" stroke-miterlimit="10"/>
<path opacity="0.81" d="M1691.4 653.212L1055.75 1288.71" stroke="white" stroke-opacity="0.4" stroke-width="2" stroke-miterlimit="10"/>
<path opacity="0.81" d="M1706.61 653.212L1070.96 1288.71" stroke="white" stroke-opacity="0.4" stroke-width="2" stroke-miterlimit="10"/>
<path opacity="0.81" d="M1721.84 653.212L1086.18 1288.71" stroke="white" stroke-opacity="0.4" stroke-width="2" stroke-miterlimit="10"/>
<path opacity="0.81" d="M1737.04 653.212L1101.39 1288.71" stroke="white" stroke-opacity="0.4" stroke-width="2" stroke-miterlimit="10"/>
<path opacity="0.81" d="M1752.27 653.212L1116.6 1288.71" stroke="white" stroke-opacity="0.4" stroke-width="2" stroke-miterlimit="10"/>
<path opacity="0.81" d="M1767.48 653.212L1131.82 1288.71" stroke="white" stroke-opacity="0.4" stroke-width="2" stroke-miterlimit="10"/>
<path opacity="0.81" d="M1782.68 653.212L1147.03 1288.71" stroke="white" stroke-opacity="0.4" stroke-width="2" stroke-miterlimit="10"/>
<path opacity="0.81" d="M1797.91 653.212L1162.23 1288.71" stroke="white" stroke-opacity="0.4" stroke-width="2" stroke-miterlimit="10"/>
<path opacity="0.81" d="M1813.11 653.212L1177.46 1288.71" stroke="white" stroke-opacity="0.4" stroke-width="2" stroke-miterlimit="10"/>
<path opacity="0.81" d="M1828.32 653.212L1192.67 1288.71" stroke="white" stroke-opacity="0.4" stroke-width="2" stroke-miterlimit="10"/>
<path opacity="0.81" d="M1843.55 653.212L1207.87 1288.71" stroke="white" stroke-opacity="0.4" stroke-width="2" stroke-miterlimit="10"/>
<path opacity="0.81" d="M1858.75 653.212L1223.1 1288.71" stroke="white" stroke-opacity="0.4" stroke-width="2" stroke-miterlimit="10"/>
<path opacity="0.81" d="M1873.96 653.212L1238.3 1288.71" stroke="white" stroke-opacity="0.4" stroke-width="2" stroke-miterlimit="10"/>
<path opacity="0.81" d="M1889.18 653.212L1253.53 1288.71" stroke="white" stroke-opacity="0.4" stroke-width="2" stroke-miterlimit="10"/>
<path opacity="0.81" d="M1904.39 653.212L1268.74 1288.71" stroke="white" stroke-opacity="0.4" stroke-width="2" stroke-miterlimit="10"/>
<path opacity="0.81" d="M1919.62 653.212L1283.94 1288.71" stroke="white" stroke-opacity="0.4" stroke-width="2" stroke-miterlimit="10"/>
<path opacity="0.81" d="M1934.82 653.212L1299.17 1288.71" stroke="white" stroke-opacity="0.4" stroke-width="2" stroke-miterlimit="10"/>
</g>
</g>
<g opacity="0.72">
<path opacity="0.5" d="M-30.0913 324.002L-331.486 625.321L-30.0913 926.639L271.303 625.321L-30.0913 324.002Z" stroke="white" stroke-opacity="0.4" stroke-width="50" stroke-miterlimit="10"/>
<path opacity="0.5" d="M720.617 738.276L419.223 1039.59L720.617 1340.91L1022.01 1039.59L720.617 738.276Z" stroke="white" stroke-opacity="0.4" stroke-width="30" stroke-miterlimit="10"/>
</g>
<path opacity="0.5" d="M153.658 652.847C182.285 681.467 182.285 727.881 153.658 756.52L-165.369 1075.47C-193.997 1104.09 -240.422 1104.09 -269.069 1075.47C-297.696 1046.85 -297.696 1000.43 -269.069 971.794L49.9585 652.847C78.6049 624.227 125.03 624.227 153.658 652.847Z" fill="url(#paint1_linear)" fill-opacity="0.4"/>
<path opacity="0.5" d="M488.16 623.67C519.283 654.786 519.283 705.211 488.16 736.327L159.283 1065.1C128.16 1096.22 77.7217 1096.22 46.5985 1065.1C15.4753 1033.99 15.4753 983.561 46.5985 952.445L375.456 623.67C406.579 592.555 457.037 592.555 488.16 623.67Z" fill="url(#paint2_linear)" fill-opacity="0.4"/>
<path opacity="0.5" d="M476.199 840.115C491.021 854.934 491.021 878.947 476.199 893.746L327.13 1042.78C312.307 1057.6 288.288 1057.6 273.485 1042.78C258.663 1027.96 258.663 1003.95 273.485 989.146L422.554 840.115C437.376 825.316 461.395 825.316 476.199 840.115Z" fill="url(#paint3_linear)" fill-opacity="0.4"/>
<path opacity="0.5" d="M353.99 760.359C373.805 780.188 373.805 812.32 353.99 832.13L57.7536 1128.29C37.92 1148.12 5.7792 1148.12 -14.0352 1128.29C-33.8496 1108.46 -33.8496 1076.33 -14.0352 1056.52L282.202 760.359C302.016 740.53 334.157 740.53 353.99 760.359Z" fill="url(#paint4_linear)" fill-opacity="0.4"/>
<path opacity="0.5" d="M1121.93 442.967C1090.81 411.852 1090.81 361.426 1121.93 330.31L1450.79 1.53562C1481.91 -29.5797 1532.35 -29.5797 1563.48 1.53562C1594.6 32.651 1594.6 83.0767 1563.48 114.192L1234.62 442.967C1203.49 474.063 1153.06 474.063 1121.93 442.967Z" fill="url(#paint5_linear)" fill-opacity="0.4"/>
<path opacity="0.5" d="M1115.85 169.532C1101.02 154.713 1101.02 130.7 1115.85 115.9L1264.92 -33.1308C1279.74 -47.9495 1303.76 -47.9495 1318.56 -33.1308C1333.38 -18.3122 1333.38 5.70097 1318.56 20.5005L1169.49 169.532C1154.69 184.331 1130.67 184.331 1115.85 169.532Z" fill="url(#paint6_linear)" fill-opacity="0.4"/>
<path opacity="0.5" d="M1358.55 444.599C1343.73 429.78 1343.73 405.767 1358.55 390.967L1507.62 241.936C1522.44 227.117 1546.46 227.117 1561.27 241.936C1576.09 256.755 1576.09 280.768 1561.27 295.567L1412.2 444.599C1397.38 459.417 1373.36 459.417 1358.55 444.599Z" fill="url(#paint7_linear)" fill-opacity="0.4"/>
<g opacity="0.49">
<path opacity="0.49" d="M317.069 168.841C321.395 168.841 324.903 165.334 324.903 161.009C324.903 156.684 321.395 153.178 317.069 153.178C312.743 153.178 309.235 156.684 309.235 161.009C309.235 165.334 312.743 168.841 317.069 168.841Z" stroke="white" stroke-opacity="0.4" stroke-width="2" stroke-miterlimit="10" stroke-linecap="round" stroke-linejoin="round"/>
<path opacity="0.49" d="M853.018 692.792C853.018 697.111 849.504 700.624 845.184 700.624C840.864 700.624 837.351 697.111 837.351 692.792C837.351 688.473 840.864 684.961 845.184 684.961C849.504 684.961 853.018 688.473 853.018 692.792Z" stroke="white" stroke-opacity="0.4" stroke-width="2" stroke-miterlimit="10" stroke-linecap="round" stroke-linejoin="round"/>
<path opacity="0.49" d="M608.064 305.875C608.064 310.194 604.55 313.707 600.231 313.707C595.911 313.707 592.397 310.194 592.397 305.875C592.397 301.556 595.911 298.043 600.231 298.043C604.57 298.043 608.064 301.537 608.064 305.875Z" stroke="white" stroke-opacity="0.4" stroke-width="2" stroke-miterlimit="10" stroke-linecap="round" stroke-linejoin="round"/>
<path opacity="0.49" d="M57.4848 561.036C57.4848 565.355 53.9712 568.868 49.6512 568.868C45.3312 568.868 41.8176 565.355 41.8176 561.036C41.8176 556.718 45.3312 553.205 49.6512 553.205C53.9904 553.205 57.4848 556.718 57.4848 561.036Z" stroke="white" stroke-opacity="0.4" stroke-width="2" stroke-miterlimit="10" stroke-linecap="round" stroke-linejoin="round"/>
<path opacity="0.49" d="M136.781 331.539C136.781 335.858 133.267 339.371 128.947 339.371C124.627 339.371 121.114 335.858 121.114 331.539C121.114 327.22 124.627 323.707 128.947 323.707C133.267 323.707 136.781 327.22 136.781 331.539Z" stroke="white" stroke-opacity="0.4" stroke-width="2" stroke-miterlimit="10" stroke-linecap="round" stroke-linejoin="round"/>
<g opacity="0.49">
<path opacity="0.49" d="M754.291 228.096V241.802" stroke="white" stroke-opacity="0.4" stroke-width="2" stroke-miterlimit="10" stroke-linecap="round" stroke-linejoin="round"/>
<path opacity="0.49" d="M761.146 234.949H747.456" stroke="white" stroke-opacity="0.4" stroke-width="2" stroke-miterlimit="10" stroke-linecap="round" stroke-linejoin="round"/>
</g>
<g opacity="0.49">
<path opacity="0.49" d="M1330.37 685.959V699.645" stroke="white" stroke-opacity="0.4" stroke-width="2" stroke-miterlimit="10" stroke-linecap="round" stroke-linejoin="round"/>
<path opacity="0.49" d="M1337.22 692.792H1323.53" stroke="white" stroke-opacity="0.4" stroke-width="2" stroke-miterlimit="10" stroke-linecap="round" stroke-linejoin="round"/>
</g>
<g opacity="0.49">
<path opacity="0.49" d="M364.051 561.958V575.644" stroke="white" stroke-opacity="0.4" stroke-width="2" stroke-miterlimit="10" stroke-linecap="round" stroke-linejoin="round"/>
<path opacity="0.49" d="M370.906 568.791H357.216" stroke="white" stroke-opacity="0.4" stroke-width="2" stroke-miterlimit="10" stroke-linecap="round" stroke-linejoin="round"/>
</g>
<g opacity="0.49">
<g opacity="0.49">
<path opacity="0.49" d="M1064.16 849.655V863.341" stroke="white" stroke-opacity="0.4" stroke-width="2" stroke-miterlimit="10" stroke-linecap="round" stroke-linejoin="round"/>
<path opacity="0.49" d="M1071 856.489H1057.31" stroke="white" stroke-opacity="0.4" stroke-width="2" stroke-miterlimit="10" stroke-linecap="round" stroke-linejoin="round"/>
</g>
<g opacity="0.49">
<path opacity="0.49" d="M1022.76 849.655V863.341" stroke="white" stroke-opacity="0.4" stroke-width="2" stroke-miterlimit="10" stroke-linecap="round" stroke-linejoin="round"/>
<path opacity="0.49" d="M1029.6 856.489H1015.91" stroke="white" stroke-opacity="0.4" stroke-width="2" stroke-miterlimit="10" stroke-linecap="round" stroke-linejoin="round"/>
</g>
<g opacity="0.49">
<path opacity="0.49" d="M981.37 849.655V863.341" stroke="white" stroke-opacity="0.4" stroke-width="2" stroke-miterlimit="10" stroke-linecap="round" stroke-linejoin="round"/>
<path opacity="0.49" d="M988.205 856.489H974.515" stroke="white" stroke-opacity="0.4" stroke-width="2" stroke-miterlimit="10" stroke-linecap="round" stroke-linejoin="round"/>
</g>
</g>
<g opacity="0.49">
<g opacity="0.49">
<path opacity="0.49" d="M136.781 237.329V251.015" stroke="white" stroke-opacity="0.4" stroke-width="2" stroke-miterlimit="10" stroke-linecap="round" stroke-linejoin="round"/>
<path opacity="0.49" d="M143.616 244.182H129.927" stroke="white" stroke-opacity="0.4" stroke-width="2" stroke-miterlimit="10" stroke-linecap="round" stroke-linejoin="round"/>
</g>
<g opacity="0.49">
<path opacity="0.49" d="M95.3855 237.329V251.015" stroke="white" stroke-opacity="0.4" stroke-width="2" stroke-miterlimit="10" stroke-linecap="round" stroke-linejoin="round"/>
<path opacity="0.49" d="M102.24 244.182H88.5312" stroke="white" stroke-opacity="0.4" stroke-width="2" stroke-miterlimit="10" stroke-linecap="round" stroke-linejoin="round"/>
</g>
<g opacity="0.49">
<path opacity="0.49" d="M53.9905 237.329V251.015" stroke="white" stroke-opacity="0.4" stroke-width="2" stroke-miterlimit="10" stroke-linecap="round" stroke-linejoin="round"/>
<path opacity="0.49" d="M60.8449 244.182H47.1553" stroke="white" stroke-opacity="0.4" stroke-width="2" stroke-miterlimit="10" stroke-linecap="round" stroke-linejoin="round"/>
</g>
</g>
<path opacity="0.49" d="M526.848 522.377L537.504 503.931H516.192L526.848 522.377Z" stroke="white" stroke-opacity="0.4" stroke-width="2" stroke-miterlimit="10" stroke-linecap="round" stroke-linejoin="round"/>
<path opacity="0.49" d="M1036.45 241.802L1025.8 260.248H1047.11L1036.45 241.802Z" stroke="white" stroke-opacity="0.4" stroke-width="2" stroke-miterlimit="10" stroke-linecap="round" stroke-linejoin="round"/>
<path opacity="0.49" d="M510.298 801.84C514.944 797.195 523.085 805.333 527.731 800.688C532.378 796.043 524.237 787.904 528.883 783.259C533.53 778.614 541.67 786.753 546.317 782.107C550.963 777.462 542.822 769.323 547.45 764.678C552.096 760.033 560.237 768.172 564.883 763.526C569.53 758.881 561.389 750.742 566.035 746.078C570.682 741.433 578.822 749.572 583.488 744.926" stroke="white" stroke-opacity="0.4" stroke-width="2" stroke-miterlimit="10" stroke-linecap="round" stroke-linejoin="round"/>
<path opacity="0.49" d="M915.015 763.891C919.661 759.246 927.802 767.385 932.448 762.739C937.095 758.094 928.954 749.955 933.6 745.31C938.247 740.665 946.387 748.804 951.034 744.158C955.68 739.513 947.539 731.374 952.167 726.729C956.813 722.084 964.954 730.223 969.6 725.578C974.247 720.932 966.106 712.794 970.752 708.129C975.399 703.484 983.539 711.623 988.205 706.977" stroke="white" stroke-opacity="0.4" stroke-width="2" stroke-miterlimit="10" stroke-linecap="round" stroke-linejoin="round"/>
<path opacity="0.49" d="M937.92 236.984C942.566 232.338 950.707 240.477 955.354 235.832C960 231.187 951.859 223.048 956.506 218.403C961.152 213.757 969.293 221.896 973.939 217.251C978.586 212.606 970.445 204.467 975.072 199.822C979.718 195.177 987.859 203.315 992.506 198.67C997.152 194.025 989.011 185.886 993.658 181.222C998.304 176.576 1006.44 184.715 1011.11 180.07" stroke="white" stroke-opacity="0.4" stroke-width="2" stroke-miterlimit="10" stroke-linecap="round" stroke-linejoin="round"/>
</g>
</g>
<defs>
<linearGradient id="paint0_linear" x1="126.228" y1="-113.975" x2="1249.77" y2="1015.85" gradientUnits="userSpaceOnUse">
<stop stop-color="#0028B8"/>
<stop offset="0.5154" stop-color="#2A5DE1"/>
<stop offset="1" stop-color="#58BBF3"/>
</linearGradient>
<linearGradient id="paint1_linear" x1="153.667" y1="652.853" x2="-268.951" y2="1075.58" gradientUnits="userSpaceOnUse">
<stop stop-color="white"/>
<stop offset="1" stop-opacity="0"/>
</linearGradient>
<linearGradient id="paint2_linear" x1="488.151" y1="623.665" x2="46.7164" y2="1065.21" gradientUnits="userSpaceOnUse">
<stop stop-color="white"/>
<stop offset="1" stop-opacity="0"/>
</linearGradient>
<linearGradient id="paint3_linear" x1="476.205" y1="840.12" x2="273.531" y2="1042.85" gradientUnits="userSpaceOnUse">
<stop stop-color="white"/>
<stop offset="1" stop-opacity="0"/>
</linearGradient>
<linearGradient id="paint4_linear" x1="378.416" y1="735.939" x2="212.915" y2="901.482" gradientUnits="userSpaceOnUse">
<stop stop-color="white"/>
<stop offset="1" stop-opacity="0"/>
</linearGradient>
<linearGradient id="paint5_linear" x1="1121.93" y1="442.958" x2="1563.37" y2="1.41235" gradientUnits="userSpaceOnUse">
<stop stop-color="white"/>
<stop offset="1" stop-opacity="0"/>
</linearGradient>
<linearGradient id="paint6_linear" x1="1115.85" y1="169.523" x2="1318.52" y2="-33.2025" gradientUnits="userSpaceOnUse">
<stop stop-color="white"/>
<stop offset="1" stop-opacity="0"/>
</linearGradient>
<linearGradient id="paint7_linear" x1="1358.54" y1="444.596" x2="1561.22" y2="241.871" gradientUnits="userSpaceOnUse">
<stop stop-color="white"/>
<stop offset="1" stop-opacity="0"/>
</linearGradient>
<clipPath id="clip0">
<rect width="1440" height="954" fill="white"/>
</clipPath>
</defs>
</svg>
